 <!DOCTYPE svg PUBLIC "-//W3C//DTD SVG 1.1//EN" "http://www.w3.org/Graphics/SVG/1.1/DTD/svg11.dtd">
<svg id="af8bc1f0-d662-4dcd-9de1-c3bfe1ee16f2" data-name="Layer 1" xmlns="http://www.w3.org/2000/svg" width="865.76" height="682.89" viewBox="0 0 865.76 682.89">
<defs>
<style xmlns="http://www.w3.org/1999/xhtml">*, ::after, ::before { box-sizing: border-box; }
img, svg { vertical-align: middle; }
</style>
<style xmlns="http://www.w3.org/1999/xhtml">*, body, html { -webkit-font-smoothing: antialiased; }
img, svg { max-width: 100%; }
</style>
</defs>
<g id="ab60db78-995f-4fe6-b403-a37aae51208e" data-name="freepik--background-complete--inject-4">
<rect x="225.35" y="142.64" width="70.18" height="214.98" fill="#f5f5f5"/>
<rect x="295.31" y="142.64" width="55.46" height="214.98" fill="#fafafa"/>
<rect x="229.12" y="177.05" width="59.53" height="16.76" fill="#e0e0e0"/>
<rect x="230.78" y="179.15" width="3.33" height="12.83" fill="#f5f5f5"/>
<path d="M238,181.85a1.07,1.07,0,1,1-1.07-1.06h0A1.07,1.07,0,0,1,238,181.85Z" fill="#fafafa"/>
<circle cx="236.98" cy="186.39" r="1.06" fill="#fafafa"/>
<rect x="242.28" y="180.79" width="3.28" height="9.85" fill="#f5f5f5"/>
<rect x="247.01" y="180.79" width="3.28" height="9.85" fill="#f5f5f5"/>
<rect x="251.74" y="180.79" width="3.28" height="9.85" fill="#f5f5f5"/>
<rect x="256.47" y="180.79" width="3.28" height="9.85" fill="#f5f5f5"/>
<rect x="261.2" y="180.79" width="3.28" height="9.85" fill="#f5f5f5"/>
<rect x="265.93" y="180.79" width="3.28" height="9.85" fill="#f5f5f5"/>
<rect x="270.66" y="180.79" width="3.28" height="9.85" fill="#f5f5f5"/>
<rect x="275.39" y="180.79" width="3.28" height="9.85" fill="#f5f5f5"/>
<rect x="280.13" y="180.79" width="3.28" height="9.85" fill="#f5f5f5"/>
<rect x="284.86" y="180.79" width="3.28" height="9.85" fill="#f5f5f5"/>
<rect x="229.12" y="203.89" width="59.53" height="16.76" fill="#e0e0e0"/>
<rect x="230.78" y="206" width="3.33" height="12.83" fill="#f5f5f5"/>
<path d="M238,208.72A1.08,1.08,0,0,1,237,209.8a1.07,1.07,0,1,1,0-2.13h0A1.06,1.06,0,0,1,238,208.72Z" fill="#fafafa"/>
<path d="M238,213.23a1.07,1.07,0,1,1-2.13,0,1.05,1.05,0,0,1,1.06-1.06h0A1.06,1.06,0,0,1,238,213.23Z" fill="#fafafa"/>
<rect x="242.28" y="207.64" width="3.28" height="9.85" fill="#f5f5f5"/>
<rect x="247.01" y="207.64" width="3.28" height="9.85" fill="#f5f5f5"/>
<rect x="251.74" y="207.64" width="3.28" height="9.85" fill="#f5f5f5"/>
<rect x="256.47" y="207.64" width="3.28" height="9.85" fill="#f5f5f5"/>
<rect x="261.2" y="207.64" width="3.28" height="9.85" fill="#f5f5f5"/>
<rect x="265.93" y="207.64" width="3.28" height="9.85" fill="#f5f5f5"/>
<rect x="270.66" y="207.64" width="3.28" height="9.85" fill="#f5f5f5"/>
<rect x="275.39" y="207.64" width="3.28" height="9.85" fill="#f5f5f5"/>
<rect x="280.13" y="207.64" width="3.28" height="9.85" fill="#f5f5f5"/>
<rect x="284.86" y="207.64" width="3.28" height="9.85" fill="#f5f5f5"/>
<rect x="229.12" y="230.74" width="59.53" height="16.76" fill="#e0e0e0"/>
<rect x="230.78" y="232.84" width="3.33" height="12.83" fill="#f5f5f5"/>
<path d="M238,235.54a1.07,1.07,0,1,1-1.07-1.06h0A1.07,1.07,0,0,1,238,235.54Z" fill="#fafafa"/>
<circle cx="236.98" cy="240.07" r="1.06" fill="#fafafa"/>
<rect x="242.28" y="234.48" width="3.28" height="9.85" fill="#f5f5f5"/>
<rect x="247.01" y="234.48" width="3.28" height="9.85" fill="#f5f5f5"/>
<rect x="251.74" y="234.48" width="3.28" height="9.85" fill="#f5f5f5"/>
<rect x="256.47" y="234.48" width="3.28" height="9.85" fill="#f5f5f5"/>
<rect x="261.2" y="234.48" width="3.28" height="9.85" fill="#f5f5f5"/>
<rect x="265.93" y="234.48" width="3.28" height="9.85" fill="#f5f5f5"/>
<rect x="270.66" y="234.48" width="3.28" height="9.85" fill="#f5f5f5"/>
<rect x="275.39" y="234.48" width="3.28" height="9.85" fill="#f5f5f5"/>
<rect x="280.13" y="234.48" width="3.28" height="9.85" fill="#f5f5f5"/>
<rect x="284.86" y="234.48" width="3.28" height="9.85" fill="#f5f5f5"/>
<rect x="229.12" y="257.58" width="59.53" height="16.76" fill="#e0e0e0"/>
<rect x="230.78" y="259.69" width="3.33" height="12.83" fill="#f5f5f5"/>
<path d="M238,262.38a1.08,1.08,0,0,1-1.06,1.08,1.07,1.07,0,1,1,0-2.13h0A1.06,1.06,0,0,1,238,262.38Z" fill="#fafafa"/>
<circle cx="236.98" cy="266.91" r="1.06" fill="#fafafa"/>
<rect x="242.28" y="261.33" width="3.28" height="9.85" fill="#f5f5f5"/>
<rect x="247.01" y="261.33" width="3.28" height="9.85" fill="#f5f5f5"/>
<rect x="251.74" y="261.33" width="3.28" height="9.85" fill="#f5f5f5"/>
<rect x="256.47" y="261.33" width="3.28" height="9.85" fill="#f5f5f5"/>
<rect x="261.2" y="261.33" width="3.28" height="9.85" fill="#f5f5f5"/>
<rect x="265.93" y="261.33" width="3.28" height="9.85" fill="#f5f5f5"/>
<rect x="270.66" y="261.33" width="3.28" height="9.85" fill="#f5f5f5"/>
<rect x="275.39" y="261.33" width="3.28" height="9.85" fill="#f5f5f5"/>
<rect x="280.13" y="261.33" width="3.28" height="9.85" fill="#f5f5f5"/>
<rect x="284.86" y="261.33" width="3.28" height="9.85" fill="#f5f5f5"/>
<rect x="229.12" y="284.43" width="59.53" height="16.76" fill="#e0e0e0"/>
<rect x="230.78" y="286.53" width="3.33" height="12.83" fill="#f5f5f5"/>
<path d="M238,289.23a1.07,1.07,0,1,1-1.07-1.06h0A1.06,1.06,0,0,1,238,289.23Z" fill="#fafafa"/>
<circle cx="236.98" cy="293.76" r="1.06" fill="#fafafa"/>
<rect x="242.28" y="288.17" width="3.28" height="9.85" fill="#f5f5f5"/>
<rect x="247.01" y="288.17" width="3.28" height="9.85" fill="#f5f5f5"/>
<rect x="251.74" y="288.17" width="3.28" height="9.85" fill="#f5f5f5"/>
<rect x="256.47" y="288.17" width="3.28" height="9.85" fill="#f5f5f5"/>
<rect x="261.2" y="288.17" width="3.28" height="9.85" fill="#f5f5f5"/>
<rect x="265.93" y="288.17" width="3.28" height="9.85" fill="#f5f5f5"/>
<rect x="270.66" y="288.17" width="3.28" height="9.85" fill="#f5f5f5"/>
<rect x="275.39" y="288.17" width="3.28" height="9.85" fill="#f5f5f5"/>
<rect x="280.13" y="288.17" width="3.28" height="9.85" fill="#f5f5f5"/>
<rect x="284.86" y="288.17" width="3.28" height="9.85" fill="#f5f5f5"/>
<rect x="229.12" y="311.27" width="59.53" height="16.76" fill="#e0e0e0"/>
<rect x="230.78" y="313.38" width="3.33" height="12.83" fill="#f5f5f5"/>
<path d="M238,316a1.08,1.08,0,0,1-1.06,1.08,1.07,1.07,0,0,1,0-2.13h0A1.05,1.05,0,0,1,238,316Z" fill="#fafafa"/>
<circle cx="236.98" cy="320.61" r="1.06" fill="#fafafa"/>
<rect x="242.28" y="315.02" width="3.28" height="9.85" fill="#f5f5f5"/>
<rect x="247.01" y="315.02" width="3.28" height="9.85" fill="#f5f5f5"/>
<rect x="251.74" y="315.02" width="3.28" height="9.85" fill="#f5f5f5"/>
<rect x="256.47" y="315.02" width="3.28" height="9.85" fill="#f5f5f5"/>
<rect x="261.2" y="315.02" width="3.28" height="9.85" fill="#f5f5f5"/>
<rect x="265.93" y="315.02" width="3.28" height="9.85" fill="#f5f5f5"/>
<rect x="270.66" y="315.02" width="3.28" height="9.85" fill="#f5f5f5"/>
<rect x="275.39" y="315.02" width="3.28" height="9.85" fill="#f5f5f5"/>
<rect x="280.13" y="315.02" width="3.28" height="9.85" fill="#f5f5f5"/>
<rect x="284.86" y="315.02" width="3.28" height="9.85" fill="#f5f5f5"/>
<rect x="229.12" y="338.12" width="59.53" height="16.76" fill="#e0e0e0"/>
<rect x="230.78" y="340.23" width="3.33" height="12.83" fill="#f5f5f5"/>
<path d="M238,342.92a1.07,1.07,0,1,1-1.07-1.06h0A1.06,1.06,0,0,1,238,342.92Z" fill="#fafafa"/>
<path d="M238,347.45a1.06,1.06,0,0,1-1.06,1.07,1,1,0,0,1-1.07-1,1.07,1.07,0,0,1,1.06-1.08h0A1.06,1.06,0,0,1,238,347.45Z" fill="#fafafa"/>
<rect x="242.28" y="341.86" width="3.28" height="9.85" fill="#f5f5f5"/>
<rect x="247.01" y="341.86" width="3.28" height="9.85" fill="#f5f5f5"/>
<rect x="251.74" y="341.86" width="3.28" height="9.85" fill="#f5f5f5"/>
<rect x="256.47" y="341.86" width="3.28" height="9.85" fill="#f5f5f5"/>
<rect x="261.2" y="341.86" width="3.28" height="9.85" fill="#f5f5f5"/>
<rect x="265.93" y="341.86" width="3.28" height="9.85" fill="#f5f5f5"/>
<rect x="270.66" y="341.86" width="3.28" height="9.85" fill="#f5f5f5"/>
<rect x="275.39" y="341.86" width="3.28" height="9.85" fill="#f5f5f5"/>
<rect x="280.13" y="341.86" width="3.28" height="9.85" fill="#f5f5f5"/>
<rect x="284.86" y="341.86" width="3.28" height="9.85" fill="#f5f5f5"/>
<path d="M265.93,177.05a2.31,2.31,0,0,1-.06-.52c0-.34-.05-.84-.06-1.49s0-1.44-.08-2.38a14.45,14.45,0,0,0-.42-3.06,10.7,10.7,0,0,0-1.59-3.34,7.26,7.26,0,0,0-3.25-2.62,16,16,0,0,0-4.59-.9l-5.13-.45c-7-.6-13.4-1-18-1.09-2.32,0-4.19,0-5.48,0h-1.51a2.26,2.26,0,0,1-.52,0,2.24,2.24,0,0,1,.52-.06l1.51-.11c1.29-.06,3.18-.12,5.48-.11,4.62,0,11,.36,18,1l5.14.45a16.23,16.23,0,0,1,4.77,1,7.73,7.73,0,0,1,3.39,2.78,10.83,10.83,0,0,1,1.59,3.47,13.7,13.7,0,0,1,.36,3.12v3.88A2.63,2.63,0,0,1,265.93,177.05Z" fill="#e0e0e0"/>
<path d="M247.87,177.05a2.81,2.81,0,0,1,0-.5v-1.4c0-.6,0-1.35-.07-2.2a6.67,6.67,0,0,0-.73-2.76,5.37,5.37,0,0,0-2.68-2.06,7.45,7.45,0,0,0-3.91-.39,6.53,6.53,0,0,0-2,.69,3.84,3.84,0,0,0-1.59,1.48,2.07,2.07,0,0,0,0,2.07,2.82,2.82,0,0,0,1.77,1.34,2.23,2.23,0,0,0,2.06-.61,3,3,0,0,0,.32-4,4.53,4.53,0,0,0-1.59-1.39,6.36,6.36,0,0,0-2-.5c-.67-.1-1.33-.19-2-.26-1.26-.14-2.45-.22-3.54-.27-2.16-.09-3.92,0-5.14,0h-1.85a2,2,0,0,1,.48-.06l1.4-.07c1.22-.06,3-.13,5.16-.08,1.09,0,2.28.09,3.56.21l2,.24,1,.17a4,4,0,0,1,1,.36,4.72,4.72,0,0,1,1.72,1.51,3.4,3.4,0,0,1,.7,2.28,3.47,3.47,0,0,1-1.05,2.26,2.67,2.67,0,0,1-2.45.7,3.19,3.19,0,0,1-2.06-1.54,2.56,2.56,0,0,1,0-2.49,4.32,4.32,0,0,1,1.75-1.64,7.31,7.31,0,0,1,2.14-.72,7.79,7.79,0,0,1,4.11.46,5.49,5.49,0,0,1,2.82,2.25A6.68,6.68,0,0,1,248,173c.05.87,0,1.59,0,2.23s0,1-.06,1.4A2.18,2.18,0,0,1,247.87,177.05Z" fill="#e0e0e0"/>
<path d="M270.79,177.05a3.78,3.78,0,0,1-.13-.56c-.06-.37-.16-.9-.31-1.59a32.06,32.06,0,0,0-1.75-5.67,16.66,16.66,0,0,0-5.18-6.95,9.7,9.7,0,0,0-4.77-1.79,49.21,49.21,0,0,0-5.56-.31c-7.7-.14-14.67-.11-19.72-.31-2.52-.09-4.56-.22-6-.31l-1.59-.15a2.1,2.1,0,0,1-.56-.08,2.62,2.62,0,0,1,.56,0l1.59.06c1.42.06,3.45.13,6,.18,5,.12,12,0,19.72.19a50.45,50.45,0,0,1,5.63.31,10.28,10.28,0,0,1,4.92,1.9,15,15,0,0,1,3.27,3.48,18.94,18.94,0,0,1,1.94,3.67,28.55,28.55,0,0,1,1.65,5.76c.12.69.2,1.24.23,1.59A2.78,2.78,0,0,1,270.79,177.05Z" fill="#e0e0e0"/>
<rect x="229.94" y="145.31" width="57.9" height="8.4" fill="#e0e0e0"/>
<rect x="242.67" y="149.52" width="31.52" height="4.21" fill="#f5f5f5"/>
<rect x="310.24" y="90.53" width="87.05" height="266.65" fill="#f5f5f5"/>
<rect x="397.02" y="90.53" width="68.8" height="266.65" fill="#fafafa"/>
<rect x="314.92" y="133.2" width="73.84" height="20.79" fill="#e0e0e0"/>
<rect x="316.98" y="135.82" width="4.13" height="15.91" fill="#f5f5f5"/>
<path d="M326,139.17a1.32,1.32,0,0,1-2.64,0,1.33,1.33,0,0,1,1.32-1.33h0A1.31,1.31,0,0,1,326,139.17Z" fill="#fafafa"/>
<circle cx="324.67" cy="144.79" r="1.31" fill="#fafafa"/>
<rect x="331.24" y="137.85" width="4.06" height="12.22" fill="#f5f5f5"/>
<rect x="337.11" y="137.85" width="4.06" height="12.22" fill="#f5f5f5"/>
<rect x="342.97" y="137.85" width="4.06" height="12.22" fill="#f5f5f5"/>
<rect x="348.85" y="137.85" width="4.06" height="12.22" fill="#f5f5f5"/>
<rect x="354.71" y="137.85" width="4.06" height="12.22" fill="#f5f5f5"/>
<rect x="360.58" y="137.85" width="4.06" height="12.22" fill="#f5f5f5"/>
<rect x="366.46" y="137.85" width="4.06" height="12.22" fill="#f5f5f5"/>
<rect x="372.32" y="137.85" width="4.06" height="12.22" fill="#f5f5f5"/>
<rect x="378.19" y="137.85" width="4.06" height="12.22" fill="#f5f5f5"/>
<rect x="384.06" y="137.85" width="4.06" height="12.22" fill="#f5f5f5"/>
<rect x="314.92" y="166.5" width="73.84" height="20.79" fill="#e0e0e0"/>
<rect x="316.98" y="169.12" width="4.13" height="15.91" fill="#f5f5f5"/>
<path d="M326,172.47a1.32,1.32,0,1,1-1.32-1.32h0a1.3,1.3,0,0,1,1.31,1.31Z" fill="#fafafa"/>
<path d="M326,178.09a1.3,1.3,0,0,1-1.31,1.32,1.32,1.32,0,1,1,0-2.63h0A1.3,1.3,0,0,1,326,178.09Z" fill="#fafafa"/>
<rect x="331.24" y="171.15" width="4.06" height="12.22" fill="#f5f5f5"/>
<rect x="337.11" y="171.15" width="4.06" height="12.22" fill="#f5f5f5"/>
<rect x="342.97" y="171.15" width="4.06" height="12.22" fill="#f5f5f5"/>
<rect x="348.85" y="171.15" width="4.06" height="12.22" fill="#f5f5f5"/>
<rect x="354.71" y="171.15" width="4.06" height="12.22" fill="#f5f5f5"/>
<rect x="360.58" y="171.15" width="4.06" height="12.22" fill="#f5f5f5"/>
<rect x="366.46" y="171.15" width="4.06" height="12.22" fill="#f5f5f5"/>
<rect x="372.32" y="171.15" width="4.06" height="12.22" fill="#f5f5f5"/>
<rect x="378.19" y="171.15" width="4.06" height="12.22" fill="#f5f5f5"/>
<rect x="384.06" y="171.15" width="4.06" height="12.22" fill="#f5f5f5"/>
<rect x="314.92" y="199.8" width="73.84" height="20.79" fill="#e0e0e0"/>
<rect x="316.98" y="202.41" width="4.13" height="15.91" fill="#f5f5f5"/>
<path d="M326,205.76a1.32,1.32,0,0,1-1.31,1.33,1.32,1.32,0,1,1,0-2.64h0A1.3,1.3,0,0,1,326,205.76Z" fill="#fafafa"/>
<circle cx="324.67" cy="211.38" r="1.31" fill="#fafafa"/>
<rect x="331.24" y="204.45" width="4.06" height="12.22" fill="#f5f5f5"/>
<rect x="337.11" y="204.45" width="4.06" height="12.22" fill="#f5f5f5"/>
<rect x="342.97" y="204.45" width="4.06" height="12.22" fill="#f5f5f5"/>
<rect x="348.85" y="204.45" width="4.06" height="12.22" fill="#f5f5f5"/>
<rect x="354.71" y="204.45" width="4.06" height="12.22" fill="#f5f5f5"/>
<rect x="360.58" y="204.45" width="4.06" height="12.22" fill="#f5f5f5"/>
<rect x="366.46" y="204.45" width="4.06" height="12.22" fill="#f5f5f5"/>
<rect x="372.32" y="204.45" width="4.06" height="12.22" fill="#f5f5f5"/>
<rect x="378.19" y="204.45" width="4.06" height="12.22" fill="#f5f5f5"/>
<rect x="384.06" y="204.45" width="4.06" height="12.22" fill="#f5f5f5"/>
<rect x="314.92" y="233.1" width="73.84" height="20.79" fill="#e0e0e0"/>
<rect x="316.98" y="235.71" width="4.13" height="15.91" fill="#f5f5f5"/>
<path d="M326,239.06a1.32,1.32,0,1,1-1.32-1.31h0A1.31,1.31,0,0,1,326,239.06Z" fill="#fafafa"/>
<path d="M326,244.68a1.32,1.32,0,1,1-1.32-1.31h0A1.31,1.31,0,0,1,326,244.68Z" fill="#fafafa"/>
<rect x="331.24" y="237.75" width="4.06" height="12.22" fill="#f5f5f5"/>
<rect x="337.11" y="237.75" width="4.06" height="12.22" fill="#f5f5f5"/>
<rect x="342.97" y="237.75" width="4.06" height="12.22" fill="#f5f5f5"/>
<rect x="348.85" y="237.75" width="4.06" height="12.22" fill="#f5f5f5"/>
<rect x="354.71" y="237.75" width="4.06" height="12.22" fill="#f5f5f5"/>
<rect x="360.58" y="237.75" width="4.06" height="12.22" fill="#f5f5f5"/>
<rect x="366.46" y="237.75" width="4.06" height="12.22" fill="#f5f5f5"/>
<rect x="372.32" y="237.75" width="4.06" height="12.22" fill="#f5f5f5"/>
<rect x="378.19" y="237.75" width="4.06" height="12.22" fill="#f5f5f5"/>
<rect x="384.06" y="237.75" width="4.06" height="12.22" fill="#f5f5f5"/>
<rect x="314.92" y="266.4" width="73.84" height="20.79" fill="#e0e0e0"/>
<rect x="316.98" y="269.01" width="4.13" height="15.91" fill="#f5f5f5"/>
<path d="M326,272.36a1.32,1.32,0,1,1-1.32-1.32h0a1.31,1.31,0,0,1,1.31,1.31Z" fill="#fafafa"/>
<circle cx="324.67" cy="277.98" r="1.31" fill="#fafafa"/>
<rect x="331.24" y="271.04" width="4.06" height="12.22" fill="#f5f5f5"/>
<rect x="337.11" y="271.04" width="4.06" height="12.22" fill="#f5f5f5"/>
<rect x="342.97" y="271.04" width="4.06" height="12.22" fill="#f5f5f5"/>
<rect x="348.85" y="271.04" width="4.06" height="12.22" fill="#f5f5f5"/>
<rect x="354.71" y="271.04" width="4.06" height="12.22" fill="#f5f5f5"/>
<rect x="360.58" y="271.04" width="4.06" height="12.22" fill="#f5f5f5"/>
<rect x="366.46" y="271.04" width="4.06" height="12.22" fill="#f5f5f5"/>
<rect x="372.32" y="271.04" width="4.06" height="12.22" fill="#f5f5f5"/>
<rect x="378.19" y="271.04" width="4.06" height="12.22" fill="#f5f5f5"/>
<rect x="384.06" y="271.04" width="4.06" height="12.22" fill="#f5f5f5"/>
<rect x="314.92" y="299.69" width="73.84" height="20.79" fill="#e0e0e0"/>
<rect x="316.98" y="302.31" width="4.13" height="15.91" fill="#f5f5f5"/>
<path d="M326,305.65a1.32,1.32,0,0,1-2.64,0,1.33,1.33,0,0,1,1.32-1.33h0A1.31,1.31,0,0,1,326,305.65Z" fill="#fafafa"/>
<path d="M326,311.27a1.32,1.32,0,0,1-2.64,0,1.33,1.33,0,0,1,1.32-1.33h0A1.31,1.31,0,0,1,326,311.27Z" fill="#fafafa"/>
<rect x="331.24" y="304.34" width="4.06" height="12.22" fill="#f5f5f5"/>
<rect x="337.11" y="304.34" width="4.06" height="12.22" fill="#f5f5f5"/>
<rect x="342.97" y="304.34" width="4.06" height="12.22" fill="#f5f5f5"/>
<rect x="348.85" y="304.34" width="4.06" height="12.22" fill="#f5f5f5"/>
<rect x="354.71" y="304.34" width="4.06" height="12.22" fill="#f5f5f5"/>
<rect x="360.58" y="304.34" width="4.06" height="12.22" fill="#f5f5f5"/>
<rect x="366.46" y="304.34" width="4.06" height="12.22" fill="#f5f5f5"/>
<rect x="372.32" y="304.34" width="4.06" height="12.22" fill="#f5f5f5"/>
<rect x="378.19" y="304.34" width="4.06" height="12.22" fill="#f5f5f5"/>
<rect x="384.06" y="304.34" width="4.06" height="12.22" fill="#f5f5f5"/>
<rect x="314.92" y="332.99" width="73.84" height="20.79" fill="#e0e0e0"/>
<rect x="316.98" y="335.61" width="4.13" height="15.91" fill="#f5f5f5"/>
<path d="M326,339a1.32,1.32,0,0,1-2.64,0,1.33,1.33,0,0,1,1.32-1.33h0A1.31,1.31,0,0,1,326,339Z" fill="#fafafa"/>
<circle cx="324.67" cy="344.57" r="1.31" fill="#fafafa"/>
<rect x="331.24" y="337.64" width="4.06" height="12.22" fill="#f5f5f5"/>
<rect x="337.11" y="337.64" width="4.06" height="12.22" fill="#f5f5f5"/>
<rect x="342.97" y="337.64" width="4.06" height="12.22" fill="#f5f5f5"/>
<rect x="348.85" y="337.64" width="4.06" height="12.22" fill="#f5f5f5"/>
<rect x="354.71" y="337.64" width="4.06" height="12.22" fill="#f5f5f5"/>
<rect x="360.58" y="337.64" width="4.06" height="12.22" fill="#f5f5f5"/>
<rect x="366.46" y="337.64" width="4.06" height="12.22" fill="#f5f5f5"/>
<rect x="372.32" y="337.64" width="4.06" height="12.22" fill="#f5f5f5"/>
<rect x="378.19" y="337.64" width="4.06" height="12.22" fill="#f5f5f5"/>
<rect x="384.06" y="337.64" width="4.06" height="12.22" fill="#f5f5f5"/>
<path d="M360.58,133.2a2.65,2.65,0,0,1-.08-.63c0-.43-.05-1-.08-1.85s0-1.79-.09-2.92a18.58,18.58,0,0,0-.51-3.79,13.65,13.65,0,0,0-2-4.15,9.23,9.23,0,0,0-4-3.24,19.67,19.67,0,0,0-5.73-1.16l-6.36-.55c-8.74-.79-16.62-1.25-22.35-1.36-2.86-.06-5.17,0-6.78,0h-1.85a2.29,2.29,0,0,1-.64,0,3.4,3.4,0,0,1,.64-.08l1.84-.11c1.59-.07,3.93-.14,6.8-.13,5.74,0,13.66.44,22.38,1.2l6.36.56a19.65,19.65,0,0,1,5.87,1.23,9.52,9.52,0,0,1,4.21,3.45,13.57,13.57,0,0,1,2,4.3,18.68,18.68,0,0,1,.44,3.88v4.77A2.56,2.56,0,0,1,360.58,133.2Z" fill="#e0e0e0"/>
<path d="M338.19,133.2a2,2,0,0,1-.06-.6v-1.74c0-.75,0-1.67-.09-2.74a8.49,8.49,0,0,0-.91-3.41,6.52,6.52,0,0,0-3.35-2.56,9.22,9.22,0,0,0-4.85-.48,8,8,0,0,0-2.5.85,4.75,4.75,0,0,0-1.94,1.83,2.58,2.58,0,0,0,0,2.58,3.45,3.45,0,0,0,2.19,1.65,2.78,2.78,0,0,0,2.56-.74,3.78,3.78,0,0,0,1.16-2.45,3.7,3.7,0,0,0-.8-2.5,5.47,5.47,0,0,0-2-1.72,7.21,7.21,0,0,0-2.42-.63c-.8-.12-1.65-.23-2.43-.32-1.59-.18-3-.28-4.38-.34-2.69-.1-4.88-.06-6.36-.07h-1.74a3.11,3.11,0,0,1-.61,0,2.08,2.08,0,0,1,.61-.07l1.74-.1c1.5,0,3.69-.16,6.36-.09,1.35,0,2.83.11,4.42.27.79.08,1.59.18,2.44.3.43.06.85.12,1.28.2a5.15,5.15,0,0,1,1.32.45,6,6,0,0,1,2.13,1.86,4.2,4.2,0,0,1-.44,5.63,3.33,3.33,0,0,1-3.05.88,4,4,0,0,1-2.54-1.91,3.2,3.2,0,0,1,0-3.09,5.28,5.28,0,0,1,2.16-2,8.61,8.61,0,0,1,2.66-.89,9.51,9.51,0,0,1,5.09.56,6.88,6.88,0,0,1,3.5,2.78,8.6,8.6,0,0,1,.88,3.59c.05,1.07,0,2,0,2.76s-.06,1.28-.08,1.73A2.62,2.62,0,0,1,338.19,133.2Z" fill="#e0e0e0"/>
<path d="M366.61,133.2a2.67,2.67,0,0,1-.15-.68c-.08-.45-.21-1.12-.4-2a38.5,38.5,0,0,0-2.18-7,20.68,20.68,0,0,0-6.42-8.59,12.07,12.07,0,0,0-5.89-2.23,61.28,61.28,0,0,0-6.91-.38c-9.54-.17-18.19-.14-24.46-.39-3.12-.11-5.65-.26-7.4-.39l-2-.17a4.1,4.1,0,0,1-.69-.1,2.73,2.73,0,0,1,.7,0l2,.07c1.74.07,4.28.16,7.4.22,6.25.15,14.89,0,24.45.24a58.21,58.21,0,0,1,7,.39,12.51,12.51,0,0,1,6.1,2.38,18.68,18.68,0,0,1,4.07,4.3,25.39,25.39,0,0,1,2.39,4.56,36.23,36.23,0,0,1,2,7.15c.15.86.25,1.54.29,2A2.72,2.72,0,0,1,366.61,133.2Z" fill="#e0e0e0"/>
<rect x="315.94" y="93.85" width="71.81" height="10.42" fill="#e0e0e0"/>
<rect x="331.72" y="99.06" width="39.1" height="5.21" fill="#f5f5f5"/>
<path d="M539.05,78.8l47.48-7.26a48,48,0,1,1-42.2-40.49Z" fill="#f5f5f5"/>
<path d="M554.45,31.2,548.69,68l36.13-6.79S579.51,40.6,554.45,31.2Z" fill="#e0e0e0"/>
<path d="M239.49,68.26a25.88,25.88,0,1,1,26.3,25.59A25.88,25.88,0,0,1,239.49,68.26Zm38.26-.62a12.38,12.38,0,1,0-12.18,12.64A12.37,12.37,0,0,0,277.75,67.64Z" fill="#f5f5f5"/>
<path d="M239.49,68.26a26,26,0,0,1,25.44-26.41l.22,13.57a12.43,12.43,0,0,0,.39,24.86l.23,13.57A26,26,0,0,1,239.49,68.26Z" fill="#e0e0e0"/>
<path d="M262.63,39.76A29.57,29.57,0,0,1,292.9,68.61c0,.2,0,.41,0,.61l-15.8.25c-.13-8-6.23-13.06-14.21-12.93Z" fill="#ebebeb"/>
<path d="M660.85,316.48a25.88,25.88,0,1,1,26.29,25.57A25.88,25.88,0,0,1,660.85,316.48Zm38.25-.62a12.37,12.37,0,1,0-12.18,12.63A12.38,12.38,0,0,0,699.1,315.86Z" fill="#f5f5f5"/>
<path d="M660.85,316.48a26,26,0,0,1,25.44-26.42l.21,13.57a12.43,12.43,0,0,0,.4,24.86l.22,13.56A26,26,0,0,1,660.85,316.48Z" fill="#e0e0e0"/>
<path d="M684,288a29.57,29.57,0,0,1,30.26,28.85c0,.2,0,.4,0,.6l-15.79.26c-.13-8-6.24-13.07-14.22-12.94Z" fill="#ebebeb"/>
</g>
<rect x="638.8" y="60.88" width="107.68" height="122.89" fill="#fff"/>
<path d="M746.47,183.77v-8.93c0-5.8,0-14.31,0-25.07,0-21.55,0-52.25-.09-88.89l.17.17H638.85l.19-.19V183.75l-.16-.17,78.1.09,21.84,0h.06l-21.8,0-78.2.08h-.17V60.57H746.77v.29c0,36.69-.07,67.43-.09,89,0,10.76,0,19.24,0,25v8.29A.8.8,0,0,1,746.47,183.77Z" fill="#2f2e41" data-secondary="true"/>
<path d="M737.22,123.66c0,.08-1.19-.59-3.46-1.31a22.4,22.4,0,0,0-9.93-.74,21.47,21.47,0,0,0-6.55,2.11,31,31,0,0,0-6.44,4.63c-2.11,1.86-4.21,4-6.63,5.93a22.82,22.82,0,0,1-8.45,4.58,12.85,12.85,0,0,1-4.94.3,16.33,16.33,0,0,1-4.58-1.41,82.21,82.21,0,0,1-7.66-4.56,23.94,23.94,0,0,0-7.2-3.23,21.19,21.19,0,0,0-6.87-.52,22.1,22.1,0,0,0-9.46,3.07c-2,1.24-3,2.18-3,2.12s.21-.26.68-.68a17.15,17.15,0,0,1,2.21-1.68,21.62,21.62,0,0,1,16.62-2.91,24.45,24.45,0,0,1,7.42,3.25,79.42,79.42,0,0,0,7.61,4.48,13,13,0,0,0,9,1.06,22.22,22.22,0,0,0,8.19-4.43c2.39-1.91,4.49-4,6.63-5.88a30.93,30.93,0,0,1,6.62-4.67,21.88,21.88,0,0,1,6.74-2.07,21.65,21.65,0,0,1,10.1,1,17.34,17.34,0,0,1,2.54,1.09A4.9,4.9,0,0,1,737.22,123.66Z" fill="#e6e7e8"/>
<rect x="668.43" y="140.14" width="9.16" height="24.76" fill="#e6e7e8"/>
<rect x="707.28" y="140.14" width="9.16" height="24.76" fill="#e6e7e8"/>
<rect x="720.23" y="125.6" width="9.16" height="39.3" fill="#e6e7e8"/>
<rect x="656.59" y="157.1" width="9.16" height="8.33" fill="#e6e7e8"/>
<rect x="681.38" y="151.31" width="9.16" height="13.58" fill="#e6e7e8"/>
<rect x="694.33" y="148.2" width="9.16" height="16.69" fill="#e6e7e8"/>
<rect x="656.37" y="78.79" width="74.81" height="31.07" fill="#e6e7e8"/>
<path d="M671.92,88.61a3.49,3.49,0,1,1-3.49-3.49,3.49,3.49,0,0,1,3.49,3.49Z" fill="#d1d3d4"/>
<rect x="675.41" y="86.21" width="24.3" height="1.35" fill="#d1d3d4"/>
<rect x="675.41" y="89.27" width="47.28" height="1.35" fill="#fff"/>
<path d="M671.92,99.33a3.49,3.49,0,1,1-3.49-3.49h0A3.49,3.49,0,0,1,671.92,99.33Z" fill="#bcbec0"/>
<rect x="675.41" y="96.92" width="12.41" height="1.35" fill="#bcbec0"/>
<rect x="675.41" y="99.99" width="47.28" height="1.35" fill="#fff"/>
<rect x="683.8" y="228.16" width="90.5" height="64.63" transform="translate(462.36 987.27) rotate(-89.51)" fill="#fff"/>
<path d="M696.37,305.45v-6.57c0-4.31.06-10.6.11-18.55.11-16,.27-38.61.47-65.37v-.19h.18l64.62.54H762v.2c-.31,33.89-.59,65.19-.8,90.5v.17H761l-47.1-.47-13-.15-3.4-.05H701l13,.07,47,.32-.17.17c.21-25.28.46-56.62.74-90.5l.21.21h0l-64.62-.58.19-.18c-.27,26.71-.5,49.29-.66,65.24-.09,7.95-.16,14.27-.21,18.6,0,2.15-.05,3.8-.06,4.93v1.28A.84.84,0,0,1,696.37,305.45Z" fill="#2f2e41" data-secondary="true"/>
<path d="M705.39,237c0-.21,10.71-.29,23.91-.18s23.89.38,23.89.58-10.7.29-23.9.18S705.39,237.22,705.39,237Z" fill="#d1d3d4"/>
<path d="M705.34,243.4c0-.21,10.7-.29,23.9-.17s23.9.37,23.9.58-10.7.28-23.91.17S705.34,243.61,705.34,243.4Z" fill="#d1d3d4"/>
<path d="M705.29,249.78c0-.2,10.7-.27,23.89-.16s23.91.37,23.9.58-10.7.28-23.9.17S705.28,250,705.29,249.78Z" fill="#d1d3d4"/>
<path d="M705.23,256.17c0-.2,10.7-.28,23.9-.16s23.9.37,23.89.58-10.7.28-23.9.17S705.22,256.42,705.23,256.17Z" fill="#d1d3d4"/>
<path d="M705.18,262.57c0-.21,10.7-.29,23.89-.17s23.91.37,23.9.58-10.7.29-23.9.17S705.18,262.78,705.18,262.57Z" fill="#d1d3d4"/>
<rect x="714.6" y="269.98" width="7.7" height="24.02" fill="#d1d3d4"/>
<rect x="726.08" y="275.48" width="7.7" height="18.54" fill="#d1d3d4"/>
<rect x="736.71" y="283" width="7.7" height="11.01" fill="#d1d3d4"/>
<path d="M639.6,199.49h4.21l11.52-.06,38-.06,34,0h.2v.15c0,4.85-.07,8.8-.08,11.59,0,1.35,0,2.38-.06,3.18v.79a1.31,1.31,0,0,1,0,.28v-1.07c0-.76,0-1.82,0-3.18,0-2.79-.05-6.74-.09-11.59l.2.16-34,.05-38-.06-11.64-.15-3.14,0h-.79Z" fill="#2f2e41" data-secondary="true"/>
<path d="M638.6,81.53a2.09,2.09,0,0,1-.5,0h-1.44l-5.33.06-18,.07.2-.21c0,1.35,0,2.76,0,4.19.07,8.13.08,15.5,0,20.83,0,2.66-.05,4.82-.11,6.31a16.6,16.6,0,0,1-.09,1.72,3.81,3.81,0,0,1-.08.59v-8.62c0-5.33-.09-12.72-.16-20.82v-4.4h.21l18,.06,5.33.22h1.44A4.17,4.17,0,0,1,638.6,81.53Z" fill="#2f2e41" data-secondary="true"/>
<path d="M640.63,81.53a2,2,0,1,1-2-2h0A2,2,0,0,1,640.63,81.53Z" fill="#2f2e41" data-secondary="true"/>
<path d="M729.41,215.35a2,2,0,1,1-2-2h0A2,2,0,0,1,729.41,215.35Z" fill="#2f2e41" data-secondary="true"/>
<path d="M636,113.24H360a8.62,8.62,0,0,0-8.62,8.62v195a8.63,8.63,0,0,0,8.62,8.62H465.93s6.73,20.83-14.16,31.62h99s-23.58-8.09-17.48-31.62H636a8.63,8.63,0,0,0,8.59-8.62v-195A8.62,8.62,0,0,0,636,113.24Z" fill="#2f2e41" data-secondary="true"/>
<path d="M501.68,304.91c3.76,5.37-2.12,11.24-7.48,7.49a1.68,1.68,0,0,1-.46-.46c-3.75-5.37,2.12-11.23,7.48-7.49A1.83,1.83,0,0,1,501.68,304.91Z" opacity="0.2"/>
<path d="M363.82,116.81H632.18a7.71,7.71,0,0,1,7.71,7.71h0V289.81H356.09V124.52a7.71,7.71,0,0,1,7.71-7.71Z" fill="#fff"/>
<path d="M363.39,116.81H633.92a6,6,0,0,1,6,6h0v8.39H356.1v-7.09a7.27,7.27,0,0,1,7.27-7.28Z" fill="#ebebeb"/>
<path d="M367.17,124.3a2,2,0,1,1-2-2h0A2,2,0,0,1,367.17,124.3Z" fill="#e0e0e0"/>
<path d="M373.09,124.3a2,2,0,1,1-2-2h0a2,2,0,0,1,2,2Z" fill="#e0e0e0"/>
<path d="M378.74,124.3a2,2,0,1,1-2-2h0A2,2,0,0,1,378.74,124.3Z" fill="#e0e0e0"/>
<polygon points="447.54 229.16 368.4 229.39 368.56 283.72 434.16 283.54 443.06 283.5 447.7 283.5 447.54 229.16" fill="#f5f5f5"/>
<path d="M374.49,277.89c-.09,0-.2-9.22-.23-20.59s0-20.59.11-20.59.2,9.22.23,20.59S374.59,277.89,374.49,277.89Z" fill="#bcbec0"/>
<path d="M443.15,272c0,.09-15.43.22-34.47.27s-34.47,0-34.47-.07,15.43-.22,34.47-.28S443.15,271.93,443.15,272Z" fill="#ebebeb"/>
<path d="M443.14,266c0,.1-15.44.22-34.47.28s-34.47,0-34.47-.08,15.43-.22,34.47-.27S443.14,265.89,443.14,266Z" fill="#ebebeb"/>
<path d="M443.12,260c0,.1-15.44.22-34.47.27s-34.47,0-34.48-.07,15.43-.22,34.48-.28S443.12,259.86,443.12,260Z" fill="#ebebeb"/>
<path d="M443.1,253.91c0,.09-15.43.21-34.46.27s-34.48,0-34.48-.07,15.43-.22,34.47-.28S443.1,253.81,443.1,253.91Z" fill="#ebebeb"/>
<path d="M443.08,247.87c0,.09-15.43.21-34.47.27s-34.47,0-34.47-.07,15.43-.22,34.47-.27S443.08,247.77,443.08,247.87Z" fill="#ebebeb"/>
<path d="M443.06,241.83c0,.09-15.43.21-34.46.27s-34.47,0-34.47-.08,15.43-.21,34.47-.27S443.06,241.73,443.06,241.83Z" fill="#ebebeb"/>
<path d="M443.05,235.75c0,.1-15.44.23-34.47.28s-34.47,0-34.47-.08,15.43-.21,34.47-.27S443.05,235.69,443.05,235.75Z" fill="#ebebeb"/>
<rect x="378.86" y="268.48" width="4.94" height="9.41" transform="translate(-0.76 1.07) rotate(-0.16)" fill="#d1d3d4"/>
<rect x="414.77" y="268.38" width="4.94" height="9.41" transform="matrix(1, 0, 0, 1, -0.76, 1.17)" fill="#d1d3d4"/>
<rect x="388.59" y="261.5" width="4.94" height="16.34" transform="translate(-0.8 1.16) rotate(-0.17)" fill="#d1d3d4"/>
<rect x="406.65" y="257.23" width="4.94" height="20.58" transform="translate(-0.75 1.14) rotate(-0.16)" fill="#d1d3d4"/>
<rect x="397.74" y="244.71" width="4.94" height="33.09" transform="translate(-0.77 1.19) rotate(-0.17)" fill="#d1d3d4"/>
<rect x="423.55" y="251.44" width="4.94" height="26.97" fill="#d1d3d4"/>
<path d="M435.21,277.72c0,.09-13.57.21-30.3.26s-30.3,0-30.3-.09,13.56-.2,30.3-.25S435.21,277.62,435.21,277.72Z" fill="#bcbec0"/>
<polygon points="367.69 144.06 367.69 223.86 495.78 223.86 507.01 223.86 540.29 223.86 540.29 144.06 367.69 144.06" fill="#f5f5f5"/>
<path d="M379.83,199.18v2.52h-.27v-2.28H379v-.24Z" fill="#d1d3d4"/>
<path d="M380.43,200.44c0-.79.42-1.28,1-1.28s1,.48,1,1.28-.42,1.28-1,1.28S380.43,201.24,380.43,200.44Zm1.75,0c0-.67-.3-1-.75-1s-.74.37-.74,1,.3,1,.74,1,.75-.36.75-1Z" fill="#d1d3d4"/>
<path d="M380.85,185.81V186h-1.76v-.19l1.05-1c.29-.28.35-.46.35-.62s-.21-.48-.6-.48a.84.84,0,0,0-.68.29l-.19-.16a1.16,1.16,0,0,1,.89-.37c.51,0,.84.26.84.69a1,1,0,0,1-.41.79l-.86.84Z" fill="#d1d3d4"/>
<path d="M381.16,184.78c0-.79.42-1.29,1-1.29s1,.49,1,1.29-.42,1.28-1,1.28S381.16,185.58,381.16,184.78Zm1.75,0c0-.68-.3-1.05-.75-1.05s-.74.37-.74,1.05.31,1,.74,1S382.91,185.45,382.91,184.78Z" fill="#d1d3d4"/>
<path d="M380.8,169.64c0,.43-.31.75-.92.75a1.28,1.28,0,0,1-.9-.32l.12-.2a1.12,1.12,0,0,0,.8.28c.41,0,.64-.19.64-.51s-.2-.49-.67-.49h-.19V169l.7-.88h-1.29v-.23h1.59v.18l-.71.89C380.53,169,380.8,169.25,380.8,169.64Z" fill="#d1d3d4"/>
<path d="M381.16,169.11c0-.79.42-1.28,1-1.28s1,.48,1,1.28-.42,1.28-1,1.28S381.16,169.91,381.16,169.11Zm1.75,0c0-.67-.3-1-.75-1s-.74.37-.74,1,.31,1,.74,1S382.91,169.77,382.91,169.11Z" fill="#d1d3d4"/>
<path d="M391,208.72c0-.79.42-1.28,1-1.28s1,.48,1,1.28-.42,1.28-1,1.28S391,209.52,391,208.72Zm1.75,0c0-.67-.31-1.05-.75-1.05s-.74.38-.74,1.05.3,1.05.74,1.05S392.7,209.38,392.7,208.72Z" fill="#d1d3d4"/>
<path d="M409.6,207.44V210h-.3v-2.29h-.59v-.23Z" fill="#d1d3d4"/>
<path d="M429.25,209.73V210h-1.77v-.18l1-1a.87.87,0,0,0,.34-.62c0-.3-.21-.48-.59-.48a.86.86,0,0,0-.69.29l-.19-.16a1.16,1.16,0,0,1,.89-.37c.52,0,.84.26.84.68a1,1,0,0,1-.41.8l-.85.84Z" fill="#d1d3d4"/>
<path d="M447.83,209.24c0,.42-.31.75-.92.75a1.3,1.3,0,0,1-.9-.33l.12-.2a1.12,1.12,0,0,0,.8.29c.42,0,.64-.2.64-.51s-.2-.5-.67-.5h-.23v-.19l.7-.88h-1.26v-.23h1.59v.19l-.72.9C447.56,208.56,447.83,208.84,447.83,209.24Z" fill="#d1d3d4"/>
<path d="M466.93,209.3h-.5V210h-.26v-.66h-1.42v-.19l1.34-1.67h.28l-1.29,1.63h1.09v-.58h.26v.58h.5Z" fill="#d1d3d4"/>
<path d="M485.13,209.23a.8.8,0,0,1-.91.79,1.33,1.33,0,0,1-.91-.33l.13-.2a1.1,1.1,0,0,0,.8.29c.42,0,.65-.21.65-.52s-.2-.52-.85-.52h-.54l.14-1.26H485v.23h-1.15l-.09.79h.33C484.82,208.48,485.13,208.78,485.13,209.23Z" fill="#d1d3d4"/>
<path d="M504,209.21a.79.79,0,0,1-.79.8h-.07c-.67,0-1-.46-1-1.26a1.16,1.16,0,0,1,1.15-1.3,1.13,1.13,0,0,1,.6.14l-.11.21a.85.85,0,0,0-.49-.12c-.54,0-.89.35-.89,1v.21a.81.81,0,0,1,.8-.44A.8.8,0,0,1,504,209.21Zm-.25,0c0-.33-.25-.54-.64-.54a.59.59,0,0,0-.65.52v0c0,.28.23.54.67.54a.56.56,0,0,0,.61-.49.43.43,0,0,1,0-.05Z" fill="#d1d3d4"/>
<path d="M522.46,207.44v.19L521.39,210h-.28l1-2.29h-1.29v.47h-.26v-.7Z" fill="#d1d3d4"/>
<path d="M522.6,200.56c0,.14-29.16.25-65.12.25s-65.13-.11-65.13-.25,29.16-.25,65.13-.25S522.6,200.42,522.6,200.56Z" fill="#d1d3d4"/>
<path d="M522.6,184.82c0,.14-29.16.24-65.12.24s-65.13-.1-65.13-.24,29.16-.25,65.13-.25S522.6,184.68,522.6,184.82Z" fill="#d1d3d4"/>
<path d="M522.6,169.07c0,.14-29.16.25-65.12.25s-65.13-.11-65.13-.25,29.16-.24,65.13-.24S522.6,169,522.6,169.07Z" fill="#d1d3d4"/>
<path d="M392.35,200.33a.84.84,0,1,1-1.68,0,.85.85,0,0,1,.83-.86h0a.79.79,0,0,1,.83.76A.11.11,0,0,1,392.35,200.33Z" fill="#bcbec0"/>
<path d="M411.08,200.33a.84.84,0,0,1-.84.83.83.83,0,0,1-.83-.83.84.84,0,0,1,.83-.84h0a.81.81,0,0,1,.84.76Z" fill="#bcbec0"/>
<path d="M429.8,200.33a.83.83,0,0,1-1.66,0,.84.84,0,0,1,.83-.84h0a.79.79,0,0,1,.83.76A.11.11,0,0,1,429.8,200.33Z" fill="#bcbec0"/>
<path d="M448.53,200.33a.84.84,0,1,1-1.68,0,.85.85,0,0,1,.83-.86h0a.79.79,0,0,1,.83.76A.11.11,0,0,1,448.53,200.33Z" fill="#bcbec0"/>
<path d="M467.26,200.33a.79.79,0,0,1-.84.75.79.79,0,0,1-.75-.83.8.8,0,0,1,1.59,0Z" fill="#bcbec0"/>
<path d="M504.7,200.33a.85.85,0,0,1-1.69,0,.86.86,0,0,1,.84-.86h0a.85.85,0,0,1,.85.83Z" fill="#bcbec0"/>
<path d="M486,200.33a.83.83,0,0,1-.83.83.84.84,0,0,1-.84-.83.85.85,0,0,1,.84-.84h0a.81.81,0,0,1,.8.8S486,200.32,486,200.33Z" fill="#bcbec0"/>
<path d="M523.43,200.33a.83.83,0,0,1-1.66,0,.84.84,0,0,1,.83-.84h0a.79.79,0,0,1,.83.76A.11.11,0,0,1,523.43,200.33Z" fill="#bcbec0"/>
<path d="M400.88,200.56a.55.55,0,1,1-.54-.55.55.55,0,0,1,.54.55Z" fill="#e0e0e0"/>
<path d="M419.69,200.56a.55.55,0,0,1-.55.55.55.55,0,0,1,0-1.1.55.55,0,0,1,.55.55Z" fill="#e0e0e0"/>
<path d="M438.48,200.56a.55.55,0,0,1-1.1-.06.55.55,0,0,1,.54-.52.55.55,0,0,1,.56.54Z" fill="#e0e0e0"/>
<path d="M457.28,200.56a.55.55,0,1,1-.55-.55.55.55,0,0,1,.55.55Z" fill="#e0e0e0"/>
<path d="M476.08,200.56a.55.55,0,1,1-.55-.55.55.55,0,0,1,.55.55Z" fill="#e0e0e0"/>
<path d="M494.87,200.56a.55.55,0,0,1-.58.51.54.54,0,0,1-.51-.58.55.55,0,0,1,.58-.51h0A.55.55,0,0,1,494.87,200.56Z" fill="#e0e0e0"/>
<path d="M513.66,200.56a.55.55,0,1,1-.54-.55.55.55,0,0,1,.54.55Z" fill="#e0e0e0"/>
<path d="M412.29,193.62a2.05,2.05,0,1,1-2.05-2.05h0A2.05,2.05,0,0,1,412.29,193.62Z" fill="#bcbec0"/>
<path d="M428.64,184a2.06,2.06,0,1,1-2.07-2.05h0A2.07,2.07,0,0,1,428.64,184Z" fill="#bcbec0"/>
<path d="M448.91,184.82a2.05,2.05,0,1,1-2.05-2h0A2.05,2.05,0,0,1,448.91,184.82Z" fill="#bcbec0"/>
<path d="M468.71,167.29a2.05,2.05,0,1,1-2-2h0A2.05,2.05,0,0,1,468.71,167.29Z" fill="#bcbec0"/>
<path d="M487.21,178.44a2.05,2.05,0,1,1-2-2.05h0A2,2,0,0,1,487.21,178.44Z" fill="#bcbec0"/>
<path d="M505.92,181.4a2.05,2.05,0,1,1-2.05-2.05h0a2,2,0,0,1,2.05,2Z" fill="#bcbec0"/>
<path d="M523.43,193.62H523a9.42,9.42,0,0,1-1.4-.19,10.54,10.54,0,0,1-4.87-2.31A10.08,10.08,0,0,1,514.3,188a23.32,23.32,0,0,0-2.5-3.88,8.34,8.34,0,0,0-4.24-3,5.43,5.43,0,0,0-2.8.1,7.54,7.54,0,0,0-2.6,1.47c-1.59,1.33-2.76,3.22-4.31,4.95a8.73,8.73,0,0,1-2.82,2.19,5.73,5.73,0,0,1-3.7.3,4.64,4.64,0,0,1-2.81-2.59,18.09,18.09,0,0,1-1.22-3.73,20.94,20.94,0,0,0-1.11-3.8,2.9,2.9,0,0,0-1.2-1.43,3.87,3.87,0,0,0-1.89-.38A33.84,33.84,0,0,0,479,179a12.13,12.13,0,0,1-2.17.25,4.93,4.93,0,0,1-2.21-.43,4.53,4.53,0,0,1-1.75-1.47,10,10,0,0,1-1.07-2c-.6-1.39-1-2.83-1.53-4.23a10.55,10.55,0,0,0-1-2,3.6,3.6,0,0,0-1.59-1.35c-.18-.05-.34-.11-.52-.15l-.54-.06a1.94,1.94,0,0,0-1,.21,4,4,0,0,0-1.49,1.59,18.57,18.57,0,0,0-1.75,4.31c-.44,1.51-.79,3.05-1.18,4.61-.6,2.58-1.14,5.16-1.8,7.68a37.18,37.18,0,0,1-1.15,3.72,9.47,9.47,0,0,1-1.95,3.38,2.65,2.65,0,0,1-1.84.79,3.64,3.64,0,0,1-1.9-.57,9.09,9.09,0,0,1-2.66-2.69,32.87,32.87,0,0,1-3.18-6.53,15.16,15.16,0,0,0-3.58-5.77,6.74,6.74,0,0,0-6-1.46,10,10,0,0,0-2.86,1.26,18.49,18.49,0,0,0-2.5,1.81,33.17,33.17,0,0,0-4.18,4.2h0a44.64,44.64,0,0,1-6.18,5.13,30.31,30.31,0,0,1-6.36,3.44,14,14,0,0,1-6.2,1,21.92,21.92,0,0,1-5.17-1.25,48.91,48.91,0,0,1-6.71-3.07c-.75-.4-1.3-.73-1.68-1s-.54-.36-.54-.36l.58.31,1.7.91a51.52,51.52,0,0,0,6.72,3,21.45,21.45,0,0,0,5.11,1.19,13.63,13.63,0,0,0,6.08-1.06,30.27,30.27,0,0,0,6.24-3.42,46,46,0,0,0,6.1-5.12h0a34.13,34.13,0,0,1,4.22-4.28,21.14,21.14,0,0,1,2.48-1.83,10.76,10.76,0,0,1,3-1.32,7.17,7.17,0,0,1,6.42,1.55,15.64,15.64,0,0,1,3.72,5.93,32.6,32.6,0,0,0,3.18,6.43,8.6,8.6,0,0,0,2.51,2.55,3.37,3.37,0,0,0,1.66.51,2.24,2.24,0,0,0,1.51-.69,9.53,9.53,0,0,0,1.83-3.18c.43-1.2.81-2.43,1.12-3.67.66-2.5,1.2-5.08,1.8-7.67.37-1.59.74-3.12,1.19-4.64a19.79,19.79,0,0,1,1.79-4.42,4.61,4.61,0,0,1,1.7-1.75,2.54,2.54,0,0,1,1.24-.26l.62.07c.19,0,.39.12.58.17a4.17,4.17,0,0,1,1.86,1.54,10.64,10.64,0,0,1,1,2.08c.55,1.43.94,2.88,1.52,4.22a5.63,5.63,0,0,0,2.58,3.23,7.2,7.2,0,0,0,4.09.15,31.39,31.39,0,0,1,4.19-.73,4.34,4.34,0,0,1,2.13.43,3.41,3.41,0,0,1,1.38,1.64,21.85,21.85,0,0,1,1.14,3.88,17.32,17.32,0,0,0,1.16,3.66,4.24,4.24,0,0,0,2.56,2.38,5.22,5.22,0,0,0,3.42-.27,8.09,8.09,0,0,0,2.67-2.12c1.53-1.68,2.72-3.59,4.38-5a7.84,7.84,0,0,1,2.72-1.52,5.75,5.75,0,0,1,3-.09,8.51,8.51,0,0,1,4.37,3.08,22.46,22.46,0,0,1,2.5,4A9.89,9.89,0,0,0,516.8,191a10.62,10.62,0,0,0,4.77,2.39,12.41,12.41,0,0,0,1.38.23A3.85,3.85,0,0,1,523.43,193.62Z" fill="#bcbec0"/>
<path d="M412.48,158.28c0,.14-7.26.25-16.23.25s-16.24-.11-16.24-.25,7.27-.24,16.24-.24S412.48,158.15,412.48,158.28Z" fill="#d1d3d4"/>
<polygon points="547.17 144.58 547.17 222.59 556.62 222.59 569.61 222.59 630.19 222.59 630.19 144.58 547.17 144.58" fill="#f5f5f5"/>
<path d="M588.31,153.42A25.62,25.62,0,1,0,613.92,179a25.61,25.61,0,0,0-25.61-25.61Zm.39,41a15.74,15.74,0,1,1,15.73-15.74h0a15.75,15.75,0,0,1-15.72,15.78h0Z" fill="#bcbec0"/>
<path d="M588.71,153.43v9.48a15.73,15.73,0,0,1,15,20.5l9.29,2.52a25.61,25.61,0,0,0-24.27-32.5Z" fill="#d1d3d4"/>
<path d="M588.7,194.42a16.89,16.89,0,0,1-3.33-.36c-.4,2.28-1.15,6.7-1.73,10.18a25.21,25.21,0,0,0,4.67.44A25.61,25.61,0,0,0,613,186l-9.28-2.52A15.75,15.75,0,0,1,588.7,194.42Z" fill="#e6e7e8"/>
<path d="M585.3,179.92h-.95v1.22H583v-1.22H579.9V179l2.74-3.69h1.42l-2.55,3.5h1.59v-1.1h1.28v1.09h.94Z" fill="#bcbec0"/>
<path d="M585.7,178.23c0-1.92,1.06-3,2.49-3s2.5,1.09,2.5,3-1.06,3-2.5,3S585.7,180.15,585.7,178.23Zm3.63,0c0-1.32-.46-1.87-1.14-1.87s-1.13.55-1.13,1.87.46,1.88,1.11,1.88,1.16-.56,1.16-1.88Z" fill="#bcbec0"/>
<path d="M591.24,176.86a1.45,1.45,0,0,1,1.59-1.29,1.44,1.44,0,1,1-1.59,1.44Zm2,0c0-.63-.23-.93-.6-.93s-.61.31-.61.93.25.92.61.92.6-.3.6-.92Zm2.87-1.54h1l-4,5.82h-1Zm-1,4.29a1.46,1.46,0,1,1,2.9.27,1.45,1.45,0,0,1-2.9-.13v-.14Zm2,0c0-.62-.24-.93-.61-.93s-.61.3-.61.93.25.92.61.92.61-.31.61-.92Z" fill="#bcbec0"/>
<path d="M609.5,211.11c0,.13-9.48.24-21.19.24s-21.19-.11-21.19-.24,9.49-.25,21.19-.25S609.5,211,609.5,211.11Z" fill="#e0e0e0"/>
<path d="M600.09,215c0,.13-5.26.24-11.76.24s-11.75-.11-11.75-.24,5.26-.24,11.75-.24S600.09,214.87,600.09,215Z" fill="#e0e0e0"/>
<rect x="453.99" y="227.78" width="166.61" height="54.74" fill="#fafafa"/>
<path d="M606.55,240.73c0,.09-28.32.17-63.24.17s-63.24-.08-63.24-.17,28.31-.18,63.24-.18S606.55,240.63,606.55,240.73Z" fill="#ebebeb"/>
<path d="M606.55,247.21c0,.09-28.32.17-63.24.17s-63.24-.08-63.24-.17,28.31-.18,63.24-.18S606.55,247.1,606.55,247.21Z" fill="#ebebeb"/>
<path d="M606.55,253.69c0,.09-28.32.17-63.24.17s-63.24-.08-63.24-.17,28.31-.19,63.24-.19S606.55,253.58,606.55,253.69Z" fill="#ebebeb"/>
<path d="M606.55,260.16c0,.1-28.32.17-63.24.17s-63.26-.07-63.26-.17,28.31-.18,63.24-.18S606.55,260.06,606.55,260.16Z" fill="#ebebeb"/>
<path d="M606.55,266.64c0,.09-28.32.17-63.24.17s-63.26-.05-63.26-.17,28.31-.18,63.24-.18S606.55,266.54,606.55,266.64Z" fill="#ebebeb"/>
<path d="M595.54,259.09a3.55,3.55,0,0,1-.28.29,3.85,3.85,0,0,1-1.07.59,5.65,5.65,0,0,1-4.61-.74,7.67,7.67,0,0,1-2.18-2.39c-.6-1-1.08-2.11-1.65-3.3a10.41,10.41,0,0,0-2.47-3.44,5.69,5.69,0,0,0-2.16-1.14,6.31,6.31,0,0,0-2.63-.12,10.67,10.67,0,0,0-5,2.31c-1.51,1.19-2.83,2.63-4.45,4a10.94,10.94,0,0,1-6.12,2.6,6.27,6.27,0,0,1-3.49-.8,7.68,7.68,0,0,1-2.44-2.44c-1.25-1.88-1.89-4.07-3.53-5.79a5.79,5.79,0,0,0-3.06-1.83,4.75,4.75,0,0,0-3.59.74,7.18,7.18,0,0,0-2.39,2.74,15.66,15.66,0,0,0-1.12,3.41,19.1,19.1,0,0,1-1.1,3.54,7.35,7.35,0,0,1-2.52,3,10.16,10.16,0,0,1-3.86,1.67,10.49,10.49,0,0,1-4.25.05,10.11,10.11,0,0,1-3.76-1.59c-1.11-.72-2.12-1.51-3.18-2.23a10.09,10.09,0,0,0-3.42-1.59,5.7,5.7,0,0,0-3.66.42,8.28,8.28,0,0,0-2.72,2.2,19.47,19.47,0,0,0-1.85,2.81,22.11,22.11,0,0,1-1.83,2.77,8.05,8.05,0,0,1-2.62,2.16,5.91,5.91,0,0,1-3.42.69,5.06,5.06,0,0,1-3-1.44,6.77,6.77,0,0,1-1.64-2.47,17.27,17.27,0,0,1-.75-2.64,11.37,11.37,0,0,0-1.76-4.77,6.2,6.2,0,0,0-4.06-2.63,5.07,5.07,0,0,0-2.38.26,6.15,6.15,0,0,0-1.88,1.07c-2.14,1.77-3.18,3.91-4.77,5.15a6.84,6.84,0,0,1-4.25,1.85,4.06,4.06,0,0,1-1.24-.19l-.39-.15a4.83,4.83,0,0,0,1.59.27,6.82,6.82,0,0,0,4.15-1.87c1.54-1.24,2.52-3.37,4.69-5.2a6.58,6.58,0,0,1,1.95-1.13,5.45,5.45,0,0,1,2.47-.28,6.42,6.42,0,0,1,4.27,2.71,7.72,7.72,0,0,1,1.18,2.3,24.56,24.56,0,0,1,.64,2.56,16.91,16.91,0,0,0,.75,2.61,7,7,0,0,0,1.59,2.38,4.8,4.8,0,0,0,2.78,1.34,5.69,5.69,0,0,0,3.18-.67,7.84,7.84,0,0,0,2.5-2.08,20.8,20.8,0,0,0,1.79-2.74,20.57,20.57,0,0,1,1.87-2.85,8.63,8.63,0,0,1,2.86-2.3,6,6,0,0,1,3.93-.45,10.25,10.25,0,0,1,3.57,1.67c1.08.73,2.08,1.52,3.18,2.22a9.8,9.8,0,0,0,3.61,1.54,10,10,0,0,0,4.07,0,9.84,9.84,0,0,0,3.7-1.59,7.73,7.73,0,0,0,1.42-1.32,7.36,7.36,0,0,0,1-1.59,18.29,18.29,0,0,0,1.1-3.48,15.68,15.68,0,0,1,1.14-3.47,7.56,7.56,0,0,1,2.49-2.86,5.21,5.21,0,0,1,3.93-.8,6.2,6.2,0,0,1,3.27,2c1.7,1.79,2.33,4,3.56,5.83a7.37,7.37,0,0,0,2.31,2.34,5.86,5.86,0,0,0,3.27.79,10.47,10.47,0,0,0,5.9-2.5c1.59-1.29,2.94-2.74,4.47-3.94a11,11,0,0,1,5.22-2.38,7,7,0,0,1,2.77.14,6.15,6.15,0,0,1,2.24,1.2,10.36,10.36,0,0,1,2.51,3.53,33.37,33.37,0,0,0,1.59,3.3,7.46,7.46,0,0,0,2.09,2.35,5.59,5.59,0,0,0,4.5.79A3.57,3.57,0,0,0,595.54,259.09Z" fill="#d1d3d4"/>
<path d="M603.53,257.58h-.43a4.69,4.69,0,0,1-.54-.06,5.19,5.19,0,0,1-.7-.22,11.64,11.64,0,0,1-3.77-2.75c-.35-.35-.72-.74-1.08-1.14a12.55,12.55,0,0,0-1.17-1.25,6.68,6.68,0,0,0-3.72-1.47,6.07,6.07,0,0,0-2.28.25,5.83,5.83,0,0,0-2,1.18,40.9,40.9,0,0,0-3.34,3.74,9.6,9.6,0,0,1-2.13,1.79,7.19,7.19,0,0,1-2.91,1,15,15,0,0,1-6.43-1c-2.09-.76-4.1-1.8-6.36-2.47a13.46,13.46,0,0,0-3.51-.61,8.83,8.83,0,0,0-3.55.67c-2.25.94-4,2.65-6.15,4a12.94,12.94,0,0,1-3.56,1.69,14.82,14.82,0,0,1-4.08.61,16.64,16.64,0,0,1-8.11-1.95,18.52,18.52,0,0,1-6.14-5.3c-1.65-2.14-2.55-4.57-3.75-6.79a13.2,13.2,0,0,0-2.17-3.08,9.32,9.32,0,0,0-3.18-2.15,6.54,6.54,0,0,0-3.86-.36,6.72,6.72,0,0,0-3.18,1.83,9.23,9.23,0,0,0-1.92,2.9,20.59,20.59,0,0,0-1,3.18c-.26,1.07-.5,2.14-.83,3.18a13.07,13.07,0,0,1-1.38,3,14.18,14.18,0,0,1-4.64,4.54,14.92,14.92,0,0,1-6.06,2.13,14.62,14.62,0,0,1-6-.6,11.11,11.11,0,0,1-7.22-6.14c-.5-1.26-.76-2.47-1.11-3.55a7.89,7.89,0,0,0-1.44-2.79,5.49,5.49,0,0,0-4.18-1.85,3.42,3.42,0,0,0-1.59.5,2.75,2.75,0,0,1,1.59-.57,5.53,5.53,0,0,1,4.31,1.84,8,8,0,0,1,1.5,2.82c.37,1.09.63,2.3,1.14,3.53a10.94,10.94,0,0,0,7.1,6,14.3,14.3,0,0,0,5.85.56,14.6,14.6,0,0,0,5.9-2.09,14,14,0,0,0,4.52-4.46,18.49,18.49,0,0,0,2.17-6.06,20.56,20.56,0,0,1,1-3.24,9.54,9.54,0,0,1,2-3,6.74,6.74,0,0,1,7.52-1.59,10,10,0,0,1,3.35,2.23,13.84,13.84,0,0,1,2.24,3.18c1.21,2.26,2.1,4.65,3.71,6.75a18.24,18.24,0,0,0,6,5.2,16.31,16.31,0,0,0,7.89,1.9,15.25,15.25,0,0,0,4-.59,13,13,0,0,0,3.46-1.63c2.09-1.37,3.87-3.1,6.23-4.07a8.75,8.75,0,0,1,3.71-.7,14,14,0,0,1,3.62.63c2.29.69,4.31,1.74,6.35,2.49a14.57,14.57,0,0,0,6.26,1,6.83,6.83,0,0,0,2.78-.89,8.92,8.92,0,0,0,2.08-1.74,42.72,42.72,0,0,1,3.38-3.74,5.84,5.84,0,0,1,4.5-1.47A6.87,6.87,0,0,1,596,252a12.86,12.86,0,0,1,1.17,1.28c.36.41.72.79,1.06,1.14a11.63,11.63,0,0,0,3.68,2.77A3.61,3.61,0,0,0,603.53,257.58Z" fill="#bcbec0"/>
<path d="M471.39,241.05a7.88,7.88,0,0,1-3.35,0,7.88,7.88,0,0,1,3.35,0Z" fill="#e0e0e0"/>
<path d="M471.39,247.21a8.34,8.34,0,0,1-3.35,0,7.88,7.88,0,0,1,3.35,0Z" fill="#e0e0e0"/>
<path d="M471.39,253.36a7.88,7.88,0,0,1-3.35,0,8.34,8.34,0,0,1,3.35,0Z" fill="#e0e0e0"/>
<path d="M471.39,259.51a7.48,7.48,0,0,1-3.35,0,8.34,8.34,0,0,1,3.35,0Z" fill="#e0e0e0"/>
<path d="M471.39,265.67a4.15,4.15,0,0,1-1.68.18,4,4,0,0,1-1.67-.18,7.88,7.88,0,0,1,3.35,0Z" fill="#e0e0e0"/>
<path d="M486.76,273.58a31.17,31.17,0,0,1-6.69,0A32.52,32.52,0,0,1,486.76,273.58Z" fill="#e0e0e0"/>
<path d="M516.25,273.58a31.17,31.17,0,0,1-6.69,0A32.52,32.52,0,0,1,516.25,273.58Z" fill="#e0e0e0"/>
<path d="M545.74,273.58a31.17,31.17,0,0,1-6.69,0A32.52,32.52,0,0,1,545.74,273.58Z" fill="#e0e0e0"/>
<path d="M575.23,273.58a31.17,31.17,0,0,1-6.69,0A32.52,32.52,0,0,1,575.23,273.58Z" fill="#e0e0e0"/>
<path d="M604.72,273.58a31.17,31.17,0,0,1-6.69,0A32.52,32.52,0,0,1,604.72,273.58Z" fill="#e0e0e0"/>
<rect x="241.58" y="289.63" width="86.94" height="60.52" fill="#bcbec0"/>
<rect x="229.64" y="307.58" width="89.43" height="22.19" fill="#d1d3d4"/>
<rect x="233.6" y="312.15" width="17.61" height="2.71" fill="#bcbec0"/>
<rect x="233.6" y="316.81" width="17.61" height="2.71" fill="#bcbec0"/>
<rect x="233.6" y="321.63" width="17.61" height="2.71" fill="#bcbec0"/>
<path d="M258.17,313.79a1,1,0,1,1-1-1h0a1,1,0,0,1,1,1Z" fill="#bcbec0"/>
<path d="M262.63,313.79a1,1,0,1,1-1-1h0A1,1,0,0,1,262.63,313.79Z" fill="#bcbec0"/>
<path d="M267.09,313.79a1,1,0,1,1-1-1h0A1,1,0,0,1,267.09,313.79Z" fill="#bcbec0"/>
<path d="M271.55,313.79a1,1,0,0,1-1,1,1,1,0,0,1,0-2h0A1,1,0,0,1,271.55,313.79Z" fill="#bcbec0"/>
<path d="M306.09,313.79a1,1,0,1,1-1-1h0A1,1,0,0,1,306.09,313.79Z" fill="#bcbec0"/>
<path d="M310.64,313.79a1,1,0,1,1-1-1h0A1,1,0,0,1,310.64,313.79Z" fill="#bcbec0"/>
<path d="M276,313.79a1,1,0,1,1-1-1h0A1,1,0,0,1,276,313.79Z" fill="#bcbec0"/>
<path d="M297.9,313.79a1,1,0,1,1-1-1h0A1,1,0,0,1,297.9,313.79Z" fill="#bcbec0"/>
<path d="M280.47,313.79a1,1,0,1,1-1-1h0A1,1,0,0,1,280.47,313.79Z" fill="#bcbec0"/>
<path d="M284.92,313.79a1,1,0,1,1-1-1h0A1,1,0,0,1,284.92,313.79Z" fill="#bcbec0"/>
<path d="M294,313.79a1,1,0,1,1-1-1h0a1,1,0,0,1,1,1Z" fill="#bcbec0"/>
<path d="M314.34,313.79a1,1,0,1,1-1-1h0A1,1,0,0,1,314.34,313.79Z" fill="#bcbec0"/>
<path d="M289.38,313.79a1,1,0,0,1-2,0,1,1,0,0,1,1-1h0a1,1,0,0,1,1,1Z" fill="#bcbec0"/>
<path d="M302.14,313.79a1,1,0,1,1-1-1h0A1,1,0,0,1,302.14,313.79Z" fill="#bcbec0"/>
<path d="M312.32,318.66a1,1,0,1,1,1,1h0A1,1,0,0,1,312.32,318.66Z" fill="#bcbec0"/>
<path d="M307.86,318.66a1,1,0,1,1,1,1h0A1,1,0,0,1,307.86,318.66Z" fill="#bcbec0"/>
<path d="M303.4,318.66a1,1,0,1,1,1,1h0A1,1,0,0,1,303.4,318.66Z" fill="#bcbec0"/>
<path d="M298.94,318.66a1,1,0,0,1,1-1,1,1,0,0,1,0,2h0a1,1,0,0,1-1-1Z" fill="#bcbec0"/>
<path d="M264.4,318.66a1,1,0,1,1,2,0,1,1,0,0,1-2,0Z" fill="#bcbec0"/>
<path d="M259.85,318.66a1,1,0,1,1,1,1h0A1,1,0,0,1,259.85,318.66Z" fill="#bcbec0"/>
<path d="M294.49,318.66a1,1,0,1,1,1,1h0A1,1,0,0,1,294.49,318.66Z" fill="#bcbec0"/>
<path d="M272.57,318.66a1,1,0,1,1,1,1h0A1,1,0,0,1,272.57,318.66Z" fill="#bcbec0"/>
<path d="M290.06,318.66a1,1,0,1,1,1,1h0A1,1,0,0,1,290.06,318.66Z" fill="#bcbec0"/>
<path d="M285.57,318.66a1,1,0,1,1,1,1h0A1,1,0,0,1,285.57,318.66Z" fill="#bcbec0"/>
<path d="M276.55,318.66a1,1,0,1,1,1,1h0A1,1,0,0,1,276.55,318.66Z" fill="#bcbec0"/>
<path d="M256.16,318.66a1,1,0,1,1,1,1h0A1,1,0,0,1,256.16,318.66Z" fill="#bcbec0"/>
<path d="M281.12,318.66a1,1,0,1,1,1,1h0A1,1,0,0,1,281.12,318.66Z" fill="#bcbec0"/>
<path d="M268.35,318.66a1,1,0,1,1,1,1,1,1,0,0,1-1-1Z" fill="#bcbec0"/>
<path d="M258.17,323a1,1,0,1,1-1-1h0A1,1,0,0,1,258.17,323Z" fill="#bcbec0"/>
<circle cx="261.62" cy="322.99" r="1.01" fill="#bcbec0"/>
<circle cx="266.08" cy="322.99" r="1.01" fill="#bcbec0"/>
<circle cx="270.54" cy="322.99" r="1.01" fill="#bcbec0"/>
<circle cx="305.08" cy="322.99" r="1.01" fill="#bcbec0"/>
<circle cx="309.63" cy="322.99" r="1.01" fill="#bcbec0"/>
<path d="M276,323a1,1,0,1,1-1-1h0A1,1,0,0,1,276,323Z" fill="#bcbec0"/>
<path d="M297.9,323a1,1,0,1,1-1-1h0A1,1,0,0,1,297.9,323Z" fill="#bcbec0"/>
<circle cx="279.46" cy="322.99" r="1.01" fill="#bcbec0"/>
<path d="M284.92,323a1,1,0,1,1-1-1h0A1,1,0,0,1,284.92,323Z" fill="#bcbec0"/>
<path d="M294,323a1,1,0,1,1-1-1h0A1,1,0,0,1,294,323Z" fill="#bcbec0"/>
<path d="M314.34,323a1,1,0,1,1-1-1h0A1,1,0,0,1,314.34,323Z" fill="#bcbec0"/>
<path d="M289.38,323a1,1,0,1,1-1-1h0a1,1,0,0,1,1,1Z" fill="#bcbec0"/>
<circle cx="301.13" cy="322.99" r="1.01" fill="#bcbec0"/>
<rect x="229.64" y="334.96" width="89.43" height="22.19" fill="#d1d3d4"/>
<path d="M258,341a1,1,0,0,1-1,1,1,1,0,0,1,0-2h0a1,1,0,0,1,1,1Z" fill="#bcbec0"/>
<path d="M262.41,341a1,1,0,1,1-1-1h0A1,1,0,0,1,262.41,341Z" fill="#bcbec0"/>
<path d="M266.87,341a1,1,0,1,1-1-1h0A1,1,0,0,1,266.87,341Z" fill="#bcbec0"/>
<path d="M271.33,341a1,1,0,1,1-1-1h0A1,1,0,0,1,271.33,341Z" fill="#bcbec0"/>
<path d="M305.87,341a1,1,0,1,1-1-1h0A1,1,0,0,1,305.87,341Z" fill="#bcbec0"/>
<path d="M310.42,341a1,1,0,1,1-1-1h0A1,1,0,0,1,310.42,341Z" fill="#bcbec0"/>
<path d="M275.75,341a1,1,0,1,1-1-1h0A1,1,0,0,1,275.75,341Z" fill="#bcbec0"/>
<path d="M297.68,341a1,1,0,1,1-1-1h0A1,1,0,0,1,297.68,341Z" fill="#bcbec0"/>
<path d="M280.24,341a1,1,0,1,1-1-1h0A1,1,0,0,1,280.24,341Z" fill="#bcbec0"/>
<path d="M284.7,341a1,1,0,1,1-1-1h0A1,1,0,0,1,284.7,341Z" fill="#bcbec0"/>
<path d="M293.75,341a1,1,0,1,1-1-1h0A1,1,0,0,1,293.75,341Z" fill="#bcbec0"/>
<path d="M314.12,341a1,1,0,1,1-1-1h0A1,1,0,0,1,314.12,341Z" fill="#bcbec0"/>
<path d="M289.16,341a1,1,0,1,1-1-1h0A1,1,0,0,1,289.16,341Z" fill="#bcbec0"/>
<path d="M301.92,341a1,1,0,1,1-1-1h0A1,1,0,0,1,301.92,341Z" fill="#bcbec0"/>
<path d="M312.1,345.81a1,1,0,1,1,1,1h0A1,1,0,0,1,312.1,345.81Z" fill="#bcbec0"/>
<circle cx="308.65" cy="345.81" r="1.01" fill="#bcbec0"/>
<path d="M303.18,345.81a1,1,0,1,1,1,1h0A1,1,0,0,1,303.18,345.81Z" fill="#bcbec0"/>
<path d="M298.73,345.81a1,1,0,1,1,1,1h0A1,1,0,0,1,298.73,345.81Z" fill="#bcbec0"/>
<path d="M264.18,345.81a1,1,0,1,1,1,1h0a1,1,0,0,1-1-1Z" fill="#bcbec0"/>
<path d="M259.64,345.81a1,1,0,1,1,1,1h0A1,1,0,0,1,259.64,345.81Z" fill="#bcbec0"/>
<circle cx="295.28" cy="345.81" r="1.01" transform="translate(-70.6 615.83) rotate(-85.93)" fill="#bcbec0"/>
<circle cx="273.38" cy="345.81" r="1.01" fill="#bcbec0"/>
<path d="M289.81,345.81a1,1,0,1,1,1,1h0A1,1,0,0,1,289.81,345.81Z" fill="#bcbec0"/>
<path d="M285.35,345.81a1,1,0,1,1,1,1h0a1,1,0,0,1-1-1Z" fill="#bcbec0"/>
<circle cx="277.32" cy="345.81" r="1.01" fill="#bcbec0"/>
<path d="M255.93,345.81a1,1,0,1,1,1,1h0A1,1,0,0,1,255.93,345.81Z" fill="#bcbec0"/>
<path d="M280.89,345.81a1,1,0,0,1,2,0,1,1,0,0,1-1,1h0A1,1,0,0,1,280.89,345.81Z" fill="#bcbec0"/>
<path d="M268.13,345.81a1,1,0,1,1,1,1h0A1,1,0,0,1,268.13,345.81Z" fill="#bcbec0"/>
<path d="M258,350.15a1,1,0,0,1-2,0,1,1,0,0,1,1-1h0a1,1,0,0,1,1,1Z" fill="#bcbec0"/>
<path d="M262.41,350.15a1,1,0,1,1-1-1h0A1,1,0,0,1,262.41,350.15Z" fill="#bcbec0"/>
<path d="M266.87,350.15a1,1,0,1,1-1-1h0A1,1,0,0,1,266.87,350.15Z" fill="#bcbec0"/>
<path d="M271.33,350.15a1,1,0,1,1-1-1h0A1,1,0,0,1,271.33,350.15Z" fill="#bcbec0"/>
<path d="M305.87,350.15a1,1,0,1,1-1-1h0A1,1,0,0,1,305.87,350.15Z" fill="#bcbec0"/>
<path d="M310.42,350.15a1,1,0,1,1-1-1h0A1,1,0,0,1,310.42,350.15Z" fill="#bcbec0"/>
<path d="M275.75,350.15a1,1,0,1,1-1-1h0A1,1,0,0,1,275.75,350.15Z" fill="#bcbec0"/>
<path d="M297.68,350.15a1,1,0,0,1-2,0,1,1,0,0,1,1-1h0A1,1,0,0,1,297.68,350.15Z" fill="#bcbec0"/>
<path d="M280.24,350.15a1,1,0,1,1-1-1h0A1,1,0,0,1,280.24,350.15Z" fill="#bcbec0"/>
<path d="M284.7,350.15a1,1,0,1,1-1-1h0A1,1,0,0,1,284.7,350.15Z" fill="#bcbec0"/>
<path d="M293.75,350.15a1,1,0,1,1-1-1h0A1,1,0,0,1,293.75,350.15Z" fill="#bcbec0"/>
<path d="M314.12,350.15a1,1,0,0,1-2,0,1,1,0,0,1,1-1h0A1,1,0,0,1,314.12,350.15Z" fill="#bcbec0"/>
<path d="M289.16,350.15a1,1,0,1,1-1-1h0A1,1,0,0,1,289.16,350.15Z" fill="#bcbec0"/>
<path d="M301.92,350.15a1,1,0,1,1-1-1h0A1,1,0,0,1,301.92,350.15Z" fill="#bcbec0"/>
<rect x="233.6" y="339.53" width="17.61" height="2.71" fill="#bcbec0"/>
<rect x="233.6" y="344.19" width="17.61" height="2.71" fill="#bcbec0"/>
<rect x="233.6" y="349.01" width="17.61" height="2.71" fill="#bcbec0"/>
<polygon points="337.97 329.73 319.07 329.77 319.07 307.58 337.97 307.55 337.97 329.73" fill="#bcbec0"/>
<polygon points="337.97 356.94 319.07 356.98 319.07 334.79 337.97 334.76 337.97 356.94" fill="#bcbec0"/>
<polygon points="337.97 302.75 319.07 302.79 319.07 280.44 337.97 280.4 337.97 302.75" fill="#bcbec0"/>
<rect x="230.28" y="280.4" width="89.43" height="22.19" fill="#d1d3d4"/>
<rect x="234.25" y="284.97" width="17.61" height="2.71" fill="#bcbec0"/>
<rect x="234.25" y="289.63" width="17.61" height="2.71" fill="#bcbec0"/>
<path d="M258.83,286.63a1,1,0,1,1-1-1h0A1,1,0,0,1,258.83,286.63Z" fill="#bcbec0"/>
<path d="M263.29,286.63a1,1,0,1,1-2,0,1,1,0,0,1,1-1h0A1,1,0,0,1,263.29,286.63Z" fill="#bcbec0"/>
<path d="M267.74,286.63a1,1,0,1,1-1-1h0A1,1,0,0,1,267.74,286.63Z" fill="#bcbec0"/>
<path d="M272.2,286.63a1,1,0,1,1-1-1h0A1,1,0,0,1,272.2,286.63Z" fill="#bcbec0"/>
<path d="M306.75,286.63a1,1,0,1,1-1-1h0A1,1,0,0,1,306.75,286.63Z" fill="#bcbec0"/>
<path d="M311.29,286.63a1,1,0,1,1-1-1h0A1,1,0,0,1,311.29,286.63Z" fill="#bcbec0"/>
<path d="M276.66,286.63a1,1,0,1,1-1-1h0A1,1,0,0,1,276.66,286.63Z" fill="#bcbec0"/>
<path d="M298.55,286.63a1,1,0,0,1-1,1,1,1,0,0,1-1-1,1,1,0,0,1,1-1h0a1,1,0,0,1,1,1Z" fill="#bcbec0"/>
<path d="M281.12,286.63a1,1,0,0,1-2,0,1,1,0,0,1,1-1h0a1,1,0,0,1,1,1Z" fill="#bcbec0"/>
<path d="M285.57,286.63a1,1,0,1,1-1-1h0A1,1,0,0,1,285.57,286.63Z" fill="#bcbec0"/>
<path d="M294.62,286.63a1,1,0,1,1-1-1h0A1,1,0,0,1,294.62,286.63Z" fill="#bcbec0"/>
<path d="M315,286.63a1,1,0,1,1-1-1h0A1,1,0,0,1,315,286.63Z" fill="#bcbec0"/>
<path d="M290.06,286.63a1,1,0,1,1-1-1h0A1,1,0,0,1,290.06,286.63Z" fill="#bcbec0"/>
<path d="M302.78,286.63a1,1,0,1,1-1-1h0A1,1,0,0,1,302.78,286.63Z" fill="#bcbec0"/>
<path d="M313,291.47a1,1,0,1,1,1,1h0A1,1,0,0,1,313,291.47Z" fill="#bcbec0"/>
<circle cx="309.51" cy="291.47" r="1.01" fill="#bcbec0"/>
<path d="M304.05,291.47a1,1,0,1,1,1,1h0A1,1,0,0,1,304.05,291.47Z" fill="#bcbec0"/>
<path d="M299.6,291.47a1,1,0,1,1,1,1h0A1,1,0,0,1,299.6,291.47Z" fill="#bcbec0"/>
<path d="M265.05,291.47a1,1,0,1,1,1,1h0A1,1,0,0,1,265.05,291.47Z" fill="#bcbec0"/>
<path d="M260.5,291.47a1,1,0,1,1,1,1h0A1,1,0,0,1,260.5,291.47Z" fill="#bcbec0"/>
<path d="M295.13,291.47a1,1,0,1,1,1,1h0A1,1,0,0,1,295.13,291.47Z" fill="#bcbec0"/>
<circle cx="274.26" cy="291.47" r="1.01" fill="#bcbec0"/>
<path d="M290.68,291.47a1,1,0,1,1,1,1h0A1,1,0,0,1,290.68,291.47Z" fill="#bcbec0"/>
<circle cx="287.23" cy="291.47" r="1.01" fill="#bcbec0"/>
<path d="M277.17,291.47a1,1,0,1,1,1,1h0A1,1,0,0,1,277.17,291.47Z" fill="#bcbec0"/>
<circle cx="257.82" cy="291.47" r="1.01" fill="#bcbec0"/>
<path d="M281.76,291.47a1,1,0,1,1,1,1h0A1,1,0,0,1,281.76,291.47Z" fill="#bcbec0"/>
<path d="M269,291.47a1,1,0,1,1,1,1h0A1,1,0,0,1,269,291.47Z" fill="#bcbec0"/>
<path d="M258.83,295.8a1,1,0,1,1-1-1h0A1,1,0,0,1,258.83,295.8Z" fill="#bcbec0"/>
<path d="M263.29,295.8a1,1,0,1,1-1-1h0A1,1,0,0,1,263.29,295.8Z" fill="#bcbec0"/>
<path d="M267.74,295.8a1,1,0,1,1-1-1h0A1,1,0,0,1,267.74,295.8Z" fill="#bcbec0"/>
<path d="M272.2,295.8a1,1,0,1,1-1-1h0A1,1,0,0,1,272.2,295.8Z" fill="#bcbec0"/>
<path d="M306.75,295.8a1,1,0,1,1-1-1h0A1,1,0,0,1,306.75,295.8Z" fill="#bcbec0"/>
<path d="M311.29,295.8a1,1,0,1,1-1-1h0A1,1,0,0,1,311.29,295.8Z" fill="#bcbec0"/>
<path d="M276.66,295.8a1,1,0,1,1-1-1h0A1,1,0,0,1,276.66,295.8Z" fill="#bcbec0"/>
<path d="M298.55,295.8a1,1,0,1,1-1-1h0a1,1,0,0,1,1,1Z" fill="#bcbec0"/>
<path d="M281.12,295.8a1,1,0,1,1-1-1h0a1,1,0,0,1,1,1Z" fill="#bcbec0"/>
<path d="M285.57,295.8a1,1,0,1,1-1-1h0A1,1,0,0,1,285.57,295.8Z" fill="#bcbec0"/>
<path d="M294.62,295.8a1,1,0,1,1-1-1h0A1,1,0,0,1,294.62,295.8Z" fill="#bcbec0"/>
<path d="M315,295.8a1,1,0,1,1-1-1h0A1,1,0,0,1,315,295.8Z" fill="#bcbec0"/>
<path d="M290.06,295.8a1,1,0,1,1-1-1h0A1,1,0,0,1,290.06,295.8Z" fill="#bcbec0"/>
<path d="M302.78,295.8a1,1,0,1,1-1-1h0A1,1,0,0,1,302.78,295.8Z" fill="#bcbec0"/>
<path d="M351.84,185.94h-1.49l-4.27.05-15.73.09-52.13.12.18-.21v2.38c0,25.23,0,48.07,0,64.62,0,8.26-.05,14.94-.06,19.58v0c0-4.64,0-11.32-.05-19.58,0-16.55,0-39.39-.05-64.62v-2.56h52.29l15.74,0h5.38Z" fill="#2f2e41" data-secondary="true"/>
<path d="M354.3,186.75a2.94,2.94,0,1,1-2.95-2.93h0A2.94,2.94,0,0,1,354.3,186.75Z" fill="#2f2e41" data-secondary="true"/>
<path d="M303.52,212l15.25-36.78a2,2,0,0,0-1.95-3h-3.07a2,2,0,0,1-2.18-1.72v-.05l-.1-1.35a2,2,0,0,0-2.14-1.77H294.7a5.16,5.16,0,0,0-3.38,1.5l-1.18,1.14a5.11,5.11,0,0,1-3.37,1.5H268.21a5.15,5.15,0,0,0-4.43,3L248.67,212Z" fill="#2f2e41" data-secondary="true"/>
<g opacity="0.3">
<path d="M303.52,212l15.25-36.78a2,2,0,0,0-1.95-3h-3.07a2,2,0,0,1-2.18-1.72v-.05l-.1-1.35a2,2,0,0,0-2.14-1.77H294.7a5.16,5.16,0,0,0-3.38,1.5l-1.18,1.14a5.11,5.11,0,0,1-3.37,1.5H268.21a5.15,5.15,0,0,0-4.43,3L248.67,212Z"/>
</g>
<path d="M306,199.5l5.75-22.26a2.24,2.24,0,0,0-1.91-2.93H264.81a2.06,2.06,0,0,0-1.92,1.65l-8.37,33.5c-.37,1.47.22,2.38,1.59,2.33h45.31a2,2,0,0,0,1.89-1.64Z" fill="#e0e0e0"/>
<path d="M302.93,211l2.45-35a2.15,2.15,0,0,0-2-2.28H256.54V211Z" fill="#ebebeb"/>
<path d="M303.45,211.79l-5.57-36.09a2.57,2.57,0,0,0-2.53-2H248.12a2.55,2.55,0,0,0-2.59,2.51,2.44,2.44,0,0,0,.2,1l10.2,33.07Z" fill="#fafafa"/>
<path d="M303.52,212l-11.46-33.8a3.37,3.37,0,0,0-3.18-2.38h-48.7a2.38,2.38,0,0,0-2.31,2.45,2.3,2.3,0,0,0,.14.73l10.65,33Z" fill="#2f2e41" data-secondary="true"/>
<polygon points="240.62 645.32 232.83 645.32 228.39 377.46 245.06 377.46 240.62 645.32" fill="#e0e0e0"/>
<polygon points="749.42 645.32 741.61 645.32 739.13 378.2 755.8 378.2 749.42 645.32" fill="#e0e0e0"/>
<rect x="190.89" y="357.05" width="622.23" height="22.1" fill="#e0e0e0"/>
<path d="M322.71,357.37s0,.09-.19.25l-.66.66a13.39,13.39,0,0,1-3.12,2,20.24,20.24,0,0,1-6,1.64,51.11,51.11,0,0,1-8.39.3c-3.12-.09-6.49-.48-10.09-.94a110.78,110.78,0,0,0-11.5-1.12,85.34,85.34,0,0,0-25.86,4.08c-8.91,2.56-17.18,5.5-25.11,7.29a85.56,85.56,0,0,1-11.46,1.78,59.43,59.43,0,0,1-10.16,0,40.23,40.23,0,0,1-14-3.57,20.68,20.68,0,0,1-4.31-2.62l.3.16.82.5a30.62,30.62,0,0,0,3.34,1.79,41,41,0,0,0,13.86,3.4,60.23,60.23,0,0,0,10,0,83,83,0,0,0,11.32-1.89c7.86-1.78,16-4.74,25-7.32a85.89,85.89,0,0,1,26.14-4.07,109.9,109.9,0,0,1,11.59,1.18,98.44,98.44,0,0,0,10,1,53.53,53.53,0,0,0,8.3-.19,20.78,20.78,0,0,0,5.94-1.52A14.58,14.58,0,0,0,322.71,357.37Z" fill="#fff"/>
<path d="M254.65,357.67a14.1,14.1,0,0,1-1.89,1.3,43.76,43.76,0,0,1-5.67,3A58.1,58.1,0,0,1,237.8,365a62,62,0,0,1-12.13,1.53A55.69,55.69,0,0,1,204,363a13.55,13.55,0,0,1-5.24-3.53,5.79,5.79,0,0,1-.85-1.33,1.65,1.65,0,0,1-.16-.52,13,13,0,0,0,1.26,1.78,14.26,14.26,0,0,0,5.22,3.21A57.51,57.51,0,0,0,225.61,366a61.7,61.7,0,0,0,12-1.47,55.38,55.38,0,0,0,15-5.68A17.82,17.82,0,0,1,254.65,357.67Z" fill="#fff"/>
<path d="M400.65,371.72l1,.28a21.54,21.54,0,0,0,2.87.61,20.51,20.51,0,0,0,10.89-1.37v.28a29.55,29.55,0,0,0-13.5-4.28A31.06,31.06,0,0,0,384.31,371c-.66.39-1.28.86-1.36,1.43s.45,1.1,1.16,1.42a10.25,10.25,0,0,0,2.43.7l2.64.48c3.56.64,7.23,1.28,11.05,1.78a80.84,80.84,0,0,0,11.74.64,53,53,0,0,0,6-.46c1-.14,2-.3,3-.52a17,17,0,0,0,2.9-.76,9.61,9.61,0,0,0,3.76-2.21,3,3,0,0,0,.73-3.39,6.31,6.31,0,0,0-2.95-2.69,26.81,26.81,0,0,0-4.14-1.64A68,68,0,0,0,404,362.82a86.8,86.8,0,0,0-29.53,3.76,80.22,80.22,0,0,0-17.83,7.88c-1.89,1.2-3.35,2.14-4.29,2.84l-1.09.74a2,2,0,0,1-.39.25l.34-.28,1.05-.82c.89-.71,2.33-1.69,4.21-2.92a76.64,76.64,0,0,1,17.82-8.1,86.28,86.28,0,0,1,29.73-3.86,68.53,68.53,0,0,1,17.52,2.9,29.5,29.5,0,0,1,4.26,1.69,7.08,7.08,0,0,1,3.26,3,3.56,3.56,0,0,1-.89,3.81,10.78,10.78,0,0,1-4.08,2.41,17.8,17.8,0,0,1-3,.8c-1,.22-2,.38-3.05.52a57.09,57.09,0,0,1-6.13.48,80.06,80.06,0,0,1-11.89-.68c-3.83-.46-7.52-1.12-11.09-1.78l-2.65-.5a10.62,10.62,0,0,1-2.6-.75,3.6,3.6,0,0,1-1.11-.78,1.59,1.59,0,0,1-.39-1.2c.12-.87,1-1.4,1.64-1.78a31.55,31.55,0,0,1,18-3.71,29.7,29.7,0,0,1,13.7,4.46l.25.16-.28.13a20.43,20.43,0,0,1-11.12,1.24A14.76,14.76,0,0,1,400.65,371.72Z" fill="#fff"/>
<path d="M480.72,357.94a3.2,3.2,0,0,1,.6,1.12,7,7,0,0,1,.43,3.32c-.22,2.85-2.37,6.57-6.06,9.64a30.21,30.21,0,0,1-5.67,3.9,26.84,26.84,0,0,1-5.47,2.16,28.06,28.06,0,0,1-4,.8,7.33,7.33,0,0,1-1.48.11c0-.13,2.09-.36,5.26-1.32a29.07,29.07,0,0,0,5.35-2.23,31.15,31.15,0,0,0,5.49-3.85,15.92,15.92,0,0,0,6.08-9.27A9.76,9.76,0,0,0,480.72,357.94Z" fill="#fff"/>
<path d="M592.45,378a26.92,26.92,0,0,0-2.85-2.26,22.89,22.89,0,0,0-9.73-3.57,26.35,26.35,0,0,0-7.42.18,39.46,39.46,0,0,1-8.68.64,19.13,19.13,0,0,1-8.64-3.44,31.94,31.94,0,0,0-8.68-4.19,38.85,38.85,0,0,0-19.31-.23A50.16,50.16,0,0,0,512.89,371a75.74,75.74,0,0,0-8.27,5.74l-2.13,1.69a5.83,5.83,0,0,1-.74.57,5.66,5.66,0,0,1,.64-.66c.44-.41,1.12-1,2-1.78a68,68,0,0,1,8.17-5.92,49.64,49.64,0,0,1,14.4-6.06,39.18,39.18,0,0,1,19.74.2,32.21,32.21,0,0,1,8.92,4.29,18.37,18.37,0,0,0,8.27,3.35,38.5,38.5,0,0,0,8.5-.59,27.56,27.56,0,0,1,7.59-.09,21.85,21.85,0,0,1,9.84,3.82A11.25,11.25,0,0,1,592.45,378Z" fill="#fff"/>
<path d="M692.2,357.26s-.21.27-.67.75a27.32,27.32,0,0,1-2.12,2.05,55.24,55.24,0,0,1-9.09,6.56,78.7,78.7,0,0,1-15.76,7.13,77.35,77.35,0,0,1-10.16,2.64A62.92,62.92,0,0,1,643,377.56,67.37,67.37,0,0,1,621.46,374a78.12,78.12,0,0,1-15.68-7.22,59.68,59.68,0,0,1-9-6.61c-1-.84-1.64-1.59-2.12-2.05a5.43,5.43,0,0,1-.69-.75,4.72,4.72,0,0,1,.8.68c.53.42,1.21,1.14,2.23,2a65,65,0,0,0,9.12,6.41,78.67,78.67,0,0,0,15.63,7A67.41,67.41,0,0,0,643,377a64.65,64.65,0,0,0,11.19-1.16,79.07,79.07,0,0,0,10.07-2.58A80.67,80.67,0,0,0,680,366.37a61.79,61.79,0,0,0,9.18-6.36c1-.8,1.7-1.52,2.23-2A5.82,5.82,0,0,1,692.2,357.26Z" fill="#fff"/>
<path d="M678,357.05a2.32,2.32,0,0,1-.53.35c-.36.2-.89.52-1.6.88-1.43.75-3.57,1.78-6.24,2.87a75.88,75.88,0,0,1-9.86,3.26,53.49,53.49,0,0,1-12.83,1.78,62.54,62.54,0,0,1-22.82-4.69,54.58,54.58,0,0,1-6.18-2.94c-.71-.37-1.21-.73-1.57-.94a2.53,2.53,0,0,1-.52-.36,19.46,19.46,0,0,1,2.25,1.09,68.33,68.33,0,0,0,6.26,2.76,64.92,64.92,0,0,0,22.58,4.46,54,54,0,0,0,12.64-1.78,82.89,82.89,0,0,0,9.82-3.11c2.7-1.05,4.84-2,6.31-2.67A24.09,24.09,0,0,1,678,357.05Z" fill="#fff"/>
<path d="M741.22,359.31h-.71l-2-.1-1.48-.09h-6l-2.47.1-2.62.23c-1.79.13-3.8.49-5.85.77a101.91,101.91,0,0,0-13,3.16,98.56,98.56,0,0,0-12.19,4.86c-1.79.93-3.48,1.78-5,2.64l-2.17,1.28-1.94,1.27c-1.25.78-2.29,1.58-3.21,2.26l-1.3,1-1,.86-1.42,1.18a5.58,5.58,0,0,1-.56.39,4.51,4.51,0,0,1,.43-.48l1.34-1.25c.3-.29.64-.57,1-.91l1.26-1c.91-.71,1.93-1.53,3.18-2.35l1.9-1.3,2.18-1.32c1.48-1,3.21-1.78,5-2.73a97,97,0,0,1,12.26-4.95,100.74,100.74,0,0,1,13.16-3.14c2.08-.27,4-.61,5.91-.71l2.7-.22h8.59l1.46.15,2,.21A2.59,2.59,0,0,1,741.22,359.31Z" fill="#fff"/>
<path d="M603.62,377.55a23.35,23.35,0,0,0-3.42-3.32,34.23,34.23,0,0,0-12.47-5.69,85.89,85.89,0,0,0-9.79-1.78c-3.56-.44-7.41-.82-11.44-1.37A115.41,115.41,0,0,1,554,362.86a94.74,94.74,0,0,0-13.26-2.6A67.14,67.14,0,0,0,515,363.14c-3.81,1.14-7.29,2.52-10.51,3.84s-6.17,2.67-8.91,3.9c-5.35,2.46-9.63,4.54-12.57,6l-3.37,1.67-.89.43a1.3,1.3,0,0,1-.32.14l.29-.19.83-.49,3.3-1.78c2.91-1.51,7.13-3.67,12.48-6.18,2.65-1.25,5.61-2.61,8.82-4a101.13,101.13,0,0,1,10.55-3.92,67.58,67.58,0,0,1,26.16-3,97.85,97.85,0,0,1,13.37,2.64,114.91,114.91,0,0,0,12.34,2.55c4,.57,7.84,1,11.4,1.44a84.56,84.56,0,0,1,9.86,1.79A33,33,0,0,1,600.36,374,13.21,13.21,0,0,1,603.62,377.55Z" fill="#fff"/>
<path d="M463.48,357.37a4.29,4.29,0,0,1,0,1.43,14,14,0,0,1-1.21,3.72,22.72,22.72,0,0,1-9.57,9.93,71,71,0,0,1-14.17,5.34c-1.89.5-3.44.88-4.53,1.11a10.83,10.83,0,0,1-1.69.28,6.94,6.94,0,0,1,1.6-.51l4.44-1.3A82.84,82.84,0,0,0,452.29,372a23.67,23.67,0,0,0,9.48-9.57A26.63,26.63,0,0,0,463.48,357.37Z" fill="#fff"/>
<path d="M319,379.15a9.34,9.34,0,0,1,1.52-1.2c1-.73,2.51-1.78,4.42-2.94a135.32,135.32,0,0,1,15.88-8.3c6.45-2.89,12.47-5.19,16.88-6.83,2.19-.82,4-1.46,5.22-1.89a14.87,14.87,0,0,1,2-.62,10,10,0,0,1-1.78.84L358,360.27c-4.31,1.79-10.3,4.12-16.75,7a163.08,163.08,0,0,0-15.92,8.11c-1.94,1.14-3.56,2.1-4.56,2.78A15.18,15.18,0,0,1,319,379.15Z" fill="#fff"/>
<path d="M348.34,358.28a29.34,29.34,0,0,0-4,0A32.94,32.94,0,0,0,334,360.83a99,99,0,0,0-13.49,7.36,72.93,72.93,0,0,1-8.11,4.28,51.69,51.69,0,0,1-9.72,3,110.4,110.4,0,0,1-19.87,1.95c-6.17.14-11.69,0-16.31.19a99.6,99.6,0,0,0-10.91.86l-2.94.48a6.85,6.85,0,0,1-1,.16,3.69,3.69,0,0,1,1-.29c.66-.16,1.64-.35,2.9-.58a85.64,85.64,0,0,1,11-1.07c4.65-.22,10.19-.16,16.31-.34a112.45,112.45,0,0,0,19.71-2,51.57,51.57,0,0,0,9.55-3,72.44,72.44,0,0,0,8.06-4.19,96.05,96.05,0,0,1,13.65-7.29,32.76,32.76,0,0,1,10.69-2.4,21.77,21.77,0,0,1,3,.09A5.68,5.68,0,0,1,348.34,358.28Z" fill="#fff"/>
<path d="M755.85,379.15a9.34,9.34,0,0,1,1.52-1.2c1-.73,2.51-1.78,4.42-2.94a137.39,137.39,0,0,1,15.86-8.3c6.47-2.89,12.48-5.19,16.9-6.83,2.19-.82,4-1.46,5.22-1.89a14.87,14.87,0,0,1,2-.62,12,12,0,0,1-1.78.84l-5.12,2.06c-4.31,1.79-10.3,4.12-16.75,7a164.22,164.22,0,0,0-15.92,8.11c-1.94,1.14-3.56,2.1-4.56,2.78A16.81,16.81,0,0,1,755.85,379.15Z" fill="#fff"/>
<path d="M785.15,358.28a29.34,29.34,0,0,0-4,0,32.94,32.94,0,0,0-10.37,2.55,99,99,0,0,0-13.49,7.36,73.07,73.07,0,0,1-8.13,4.26,52,52,0,0,1-9.7,3.05,111.44,111.44,0,0,1-19.89,1.94c-6.15.14-11.67,0-16.3.19a99.6,99.6,0,0,0-10.91.86l-2.93.48a6.85,6.85,0,0,1-1,.16,3.67,3.67,0,0,1,1-.28c.66-.16,1.64-.36,2.9-.59a85.64,85.64,0,0,1,11-1.07c4.65-.22,10.17-.16,16.31-.34a112.45,112.45,0,0,0,19.71-2,51.57,51.57,0,0,0,9.55-3,74.17,74.17,0,0,0,8.06-4.19,96.05,96.05,0,0,1,13.65-7.29,32.81,32.81,0,0,1,10.6-2.4,21.48,21.48,0,0,1,3,.09A6,6,0,0,1,785.15,358.28Z" fill="#fff"/>
<path d="M115.07,267.54l3,5.92c1.06,1.93,2.14,4,3.26,6,2.24,4,4.51,7.95,6.9,11.78a149.79,149.79,0,0,0,15.63,21.34c1.44,1.44,3,3.18,4,4a31.22,31.22,0,0,0,4.47,3,79.25,79.25,0,0,0,11.69,5,236.65,236.65,0,0,0,26.45,7.12l-.62,10.63a128.6,128.6,0,0,1-30-1.76,77.27,77.27,0,0,1-15.43-4.34,43.17,43.17,0,0,1-7.91-4.14,32.54,32.54,0,0,1-3.66-2.84l-3.05-2.68a136.63,136.63,0,0,1-19.48-23.69c-2.8-4.18-5.44-8.42-7.85-12.78-1.22-2.18-2.41-4.38-3.55-6.6s-2.22-4.38-3.36-6.89Z" fill="#e58a7b"/>
<path d="M186.65,331.71l8.58-6.06,4.54,17.52s-7.57,2.66-13.26-1.18Z" fill="#f9b499"/>
<polygon points="207.08 321.68 210.12 336.34 199.75 343.17 195.21 325.65 207.08 321.68" fill="#f9b499"/>
<path d="M130.41,211.31c1.92,10.36,4.05,29.36-3.21,36.27,0,0,2.84,10.53,22.11,10.53,21.22,0,10.11-10.53,10.11-10.53-11.58-2.76-11.25-11.33-9.24-19.29Z" fill="#f9b499"/>
<path d="M124.27,250.55c-1.39-3.4-1.16-9.65-.13-9.74,4-.27,25.42-.33,32.5,2.39a7.4,7.4,0,0,1,4.83,9.29l0,.1Z" fill="#0071f2" data-primary="true"/>
<polygon points="56.98 637.82 71.15 637.82 84.21 605 70.05 605 56.98 637.82" fill="#f9b499"/>
<path d="M72.27,636.18H56.36a1.25,1.25,0,0,0-1.22,1l-2.79,12.59A2.08,2.08,0,0,0,54,652.22a2.42,2.42,0,0,0,.47,0c5.55-.09,8.25-.42,15.26-.42,4.3,0,13.17.46,19.13.46s6.71-5.79,4.28-6.42c-10.91-2.39-15-5.69-18.51-8.82A3.42,3.42,0,0,0,72.27,636.18Z" fill="#0071f2" data-primary="true"/>
<path d="M187.63,261.37c4.23,7.71,8.39,15.62,12.5,23.45l12.31,23.51,3.08,5.79a26.63,26.63,0,0,0,2.32,4,27.42,27.42,0,0,0,7.71,6.43,107.58,107.58,0,0,0,22.57,9.64l-1.19,10.57a70.34,70.34,0,0,1-7.26-.23,69,69,0,0,1-7.15-.83,67.6,67.6,0,0,1-14.33-3.86A42.19,42.19,0,0,1,204,331a37.84,37.84,0,0,1-5.31-6.95l-3.62-5.78Q188,306.69,181.38,295c-4.37-7.85-8.62-15.72-12.69-23.77Z" fill="#f9b499"/>
<path d="M91.25,259.32C85.46,271.69,104,310.73,104,310.73l31.6-14.66a226.88,226.88,0,0,0-12.85-32.29C114.45,247.4,97.11,246.69,91.25,259.32Z" fill="#0071f2" data-primary="true"/>
<path d="M108.2,261.85l-7.13,42.34c1.7,4,2.89,6.54,2.89,6.54l31.6-14.66S121.28,271.4,108.2,261.85Z" opacity="0.2"/>
<path d="M181.21,251.51s15.08,17.05.85,122.48H106.28c-.54-11.57,6.77-68.38-4.44-123.21a196.84,196.84,0,0,1,25.36-3.2,279.3,279.3,0,0,1,32.22,0A143.85,143.85,0,0,1,181.21,251.51Z" fill="#0071f2" data-primary="true"/>
<path d="M187.33,276.6l-11.71,28.94,11.71,17A306.7,306.7,0,0,0,187.33,276.6Z" opacity="0.2"/>
<path d="M162.77,260.87c-4.67,12.73,14.08,51.34,14.08,51.34l34-17.11a173.34,173.34,0,0,0-16.63-33C184,247.21,167.9,247,162.77,260.87Z" fill="#0071f2" data-primary="true"/>
<path d="M245.31,334.7l13.88-5.55,3.86,16.74s-11,4-19.06-1.82Z" fill="#f9b499"/>
<polygon points="274.51 329.32 272.37 344.29 263.03 345.89 259.19 329.15 274.51 329.32" fill="#f9b499"/>
<path d="M148.86,374s2.84,57.4,13.31,108c3.34,16,1.16,33.2-8.23,46.6-27.6,39.37-71.37,91.8-71.37,91.8l-22.93-2.57s37.13-68.84,56.15-103c4.32-7.71,8.13-14.77,4.88-23.14C89.17,411.7,106.2,374,106.2,374Z" fill="#2f2e41" data-secondary="true"/>
<path d="M153.13,423.6l-21.95-26.19c-.83,11.74,6.27,55.68,30.61,82.69C157.91,461.06,155.11,441,153.13,423.6Z" opacity="0.2"/>
<polygon points="171.39 637.82 185.55 637.82 189.7 605 175.54 605 171.39 637.82" fill="#f9b499"/>
<path d="M186,636.18H170.53a1.2,1.2,0,0,0-1.2,1l-2.82,12.59a2.06,2.06,0,0,0,1.57,2.46,2,2,0,0,0,.48,0c5.59-.09,13.65-.42,20.66-.42,8.21,0,15.29.46,24.92.46,5.78,0,7.42-5.79,5-6.42-11.09-2.43-20.14-2.68-29.72-8.59A6.45,6.45,0,0,0,186,636.18Z" fill="#0071f2" data-primary="true"/>
<path d="M182.06,374s11.86,39.66,31.46,90.66c6.38,16.58,8.85,32.55,4.42,46.6C204.18,554.84,192.3,620.4,192.3,620.4l-23.63-2.57s-.9-66.87,7.47-101.34c4.3-17.69,2.83-24.13-1.58-30-60.18-80.07-44-112.47-44-112.47Z" fill="#2f2e41" data-secondary="true"/>
<rect x="234.25" y="294.45" width="17.61" height="2.71" fill="#bcbec0"/>
<path d="M573,178.64a15.72,15.72,0,0,1,9.33-14.36l-4-8.85A25.61,25.61,0,0,0,562.73,179v1.08h10.33A10.18,10.18,0,0,1,573,178.64Z" fill="#b2b2b2"/>
<path d="M149.63,239.63a11.61,11.61,0,0,1-.52-3.31s-8.33.39-13.06-6.62C136.05,229.7,140.56,238,149.63,239.63Z" fill="#f4a48e"/>
<path d="M133.28,197.58c-1.93,13.91-3.86,21.95,1.56,30.46,8.24,12.79,26.5,10,32.64-3,5.53-11.73,7.91-32.52-4.4-40.8a19.29,19.29,0,0,0-29.8,13.35Z" fill="#f9b499"/>
<path d="M188,175.47c10,11.63-6.7,30.21-26.57,20.66-3.82,15.61-14.06,35.09-27.72,28.13-8-4.07-14-19.08-14.17-34.51-11.27-14.77,13.62-9.53,12.84-16.3s15.07-13.89,21.09-6.94c0,0,24.26-6.93,32.54,6.32A23.09,23.09,0,0,0,188,175.47Z" fill="#2f2e41" data-secondary="true"/>
<path d="M151,205.43a16,16,0,0,0,3.49,9.65c2.91,3.54,6.23,1.6,7-2.51.69-3.71,0-10-3.67-12.08S151,201.23,151,205.43Z" fill="#f9b499"/>
</svg>