<svg width="480" height="508" viewBox="0 0 480 508" fill="none" xmlns="http://www.w3.org/2000/svg">
<rect width="480" height="508" rx="20" fill="white"/>
<rect x="1" y="1" width="478" height="506" rx="19" stroke="black" stroke-opacity="0.1" stroke-width="2"/>
<g clip-path="url(#clip0_1_40)">
<rect x="80" y="80" width="40" height="40" rx="20" fill="black" fill-opacity="0.08"/>
</g>
<g clip-path="url(#clip1_1_40)">
<rect x="132" y="88" width="268" height="24" rx="4" fill="black" fill-opacity="0.08"/>
</g>
<g clip-path="url(#clip2_1_40)">
<rect x="80" y="144" width="320" height="200" rx="4" fill="black" fill-opacity="0.08"/>
</g>
<g clip-path="url(#clip3_1_40)">
<rect x="80" y="368" width="320" height="24" rx="4" fill="black" fill-opacity="0.08"/>
</g>
<g clip-path="url(#clip4_1_40)">
<rect x="80" y="404" width="320" height="24" rx="4" fill="black" fill-opacity="0.08"/>
</g>
<defs>
<clipPath id="clip0_1_40">
<rect x="80" y="80" width="40" height="40" rx="20" fill="white"/>
</clipPath>
<clipPath id="clip1_1_40">
<rect x="132" y="88" width="268" height="24" rx="4" fill="white"/>
</clipPath>
<clipPath id="clip2_1_40">
<rect x="80" y="144" width="320" height="200" rx="4" fill="white"/>
</clipPath>
<clipPath id="clip3_1_40">
<rect x="80" y="368" width="320" height="24" rx="4" fill="white"/>
</clipPath>
<clipPath id="clip4_1_40">
<rect x="80" y="404" width="320" height="24" rx="4" fill="white"/>
</clipPath>
</defs>
</svg>
