<svg width="192" height="132" viewBox="0 0 192 132" fill="none" xmlns="http://www.w3.org/2000/svg">
<g clip-path="url(#clip0_1_65)">
<mask id="mask0_1_65" style="mask-type:luminance" maskUnits="userSpaceOnUse" x="0" y="0" width="188" height="128">
<path d="M181.6 0H6.4C2.86538 0 0 3.42135 0 7.64179V120.358C0 124.579 2.86538 128 6.4 128H181.6C185.135 128 188 124.579 188 120.358V7.64179C188 3.42135 185.135 0 181.6 0Z" fill="white"/>
</mask>
<g mask="url(#mask0_1_65)">
<path d="M181.6 0H6.4C2.86538 0 0 3.42135 0 7.64179V120.358C0 124.579 2.86538 128 6.4 128H181.6C185.135 128 188 124.579 188 120.358V7.64179C188 3.42135 185.135 0 181.6 0Z" fill="#F4F4F7"/>
<path d="M0 9.29826H188V29.885H0V9.29826Z" fill="white"/>
<mask id="mask1_1_65" style="mask-type:luminance" maskUnits="userSpaceOnUse" x="0" y="9" width="188" height="21">
<path d="M0 9.29826H188V29.885H0V9.29826Z" fill="white"/>
</mask>
<g mask="url(#mask1_1_65)">
<path d="M0 9.48931H188V9.10722H0V9.48931ZM188 29.694H0V30.0761H188V29.694Z" fill="#DFE2EA"/>
</g>
<path d="M156.84 14.5919H40.9637C38.5336 14.5919 36.5637 16.9441 36.5637 19.8456C36.5637 22.7472 38.5336 25.0994 40.9637 25.0994H156.84C159.27 25.0994 161.24 22.7472 161.24 19.8456C161.24 16.9441 159.27 14.5919 156.84 14.5919Z" fill="white" stroke="#94B5FF"/>
<path d="M139.281 16.5023V23.1889" stroke="black"/>
<path d="M29.1721 16.98H6.77209C5.88843 16.98 5.17209 17.8353 5.17209 18.8904V20.6324C5.17209 21.6875 5.88843 22.5428 6.77209 22.5428H29.1721C30.0557 22.5428 30.7721 21.6875 30.7721 20.6324V18.8904C30.7721 17.8353 30.0557 16.98 29.1721 16.98Z" fill="#E8EBF0"/>
<path d="M29.9475 16.98H6.77209C5.88843 16.98 5.17209 17.8353 5.17209 18.8904V20.8009C5.17209 21.856 5.88843 22.7113 6.77209 22.7113H29.9475C30.8311 22.7113 31.5474 21.856 31.5474 20.8009V18.8904C31.5474 17.8353 30.8311 16.98 29.9475 16.98Z" fill="#E8EBF0"/>
<path d="M181.29 16.98H168.31C167.427 16.98 166.71 17.8353 166.71 18.8904V20.6324C166.71 21.6875 167.427 22.5428 168.31 22.5428H181.29C182.174 22.5428 182.89 21.6875 182.89 20.6324V18.8904C182.89 17.8353 182.174 16.98 181.29 16.98Z" fill="#E8EBF0"/>
<path d="M127.662 29.5238C128.199 43.4116 131.818 52.428 140.547 61.6274C147.978 69.4571 154.17 72.4499 164.07 72.9949" stroke="#3370FF" stroke-width="2.04828" stroke-dasharray="2.73 2.73"/>
<path d="M126.51 28.5876C126.83 27.659 127.872 27.4923 128.386 28.2874L132.526 34.6987C133.144 35.6566 132.432 37.0167 131.44 36.7727L128.487 36.0462C128.238 35.9847 127.978 36.0296 127.752 36.1731L125.491 37.6145C124.588 38.1906 123.577 37.0986 123.966 35.9675L126.51 28.5876Z" fill="#3370FF"/>
<path d="M0 7.3736C0 3.15316 2.86538 -0.268188 6.4 -0.268188H181.6C185.134 -0.268188 188 3.15316 188 7.3736V9.28405H0V7.3736Z" fill="#F0F1F6"/>
<path d="M7.20002 6.41837C8.08368 6.41837 8.80002 5.56303 8.80002 4.50792C8.80002 3.45281 8.08368 2.59747 7.20002 2.59747C6.31637 2.59747 5.60002 3.45281 5.60002 4.50792C5.60002 5.56303 6.31637 6.41837 7.20002 6.41837Z" fill="#C4CBD7"/>
<path d="M13.6 6.41837C14.4837 6.41837 15.2 5.56303 15.2 4.50792C15.2 3.45281 14.4837 2.59747 13.6 2.59747C12.7163 2.59747 12 3.45281 12 4.50792C12 5.56303 12.7163 6.41837 13.6 6.41837Z" fill="#C4CBD7"/>
<path d="M20 6.41837C20.8836 6.41837 21.6 5.56303 21.6 4.50792C21.6 3.45281 20.8836 2.59747 20 2.59747C19.1163 2.59747 18.4 3.45281 18.4 4.50792C18.4 5.56303 19.1163 6.41837 20 6.41837Z" fill="#C4CBD7"/>
</g>
<path d="M42.8026 20.3594V22H42.3835V18.3636H42.8026V19.6989H42.8381C42.902 19.558 42.9979 19.4461 43.1257 19.3633C43.2547 19.2792 43.4264 19.2372 43.6406 19.2372C43.8265 19.2372 43.9892 19.2745 44.1289 19.3491C44.2686 19.4225 44.3769 19.5355 44.4538 19.6882C44.532 19.8397 44.571 20.0327 44.571 20.267V22H44.152V20.2955C44.152 20.0788 44.0958 19.9113 43.9833 19.793C43.872 19.6734 43.7176 19.6136 43.5199 19.6136C43.3826 19.6136 43.2595 19.6426 43.1506 19.7006C43.0429 19.7586 42.9576 19.8433 42.8949 19.9545C42.8333 20.0658 42.8026 20.2008 42.8026 20.3594ZM46.5237 19.2727V19.6278H45.1104V19.2727H46.5237ZM45.5223 18.6193H45.9413V21.2188C45.9413 21.3371 45.9585 21.4259 45.9928 21.4851C46.0283 21.5431 46.0733 21.5821 46.1278 21.6023C46.1834 21.6212 46.242 21.6307 46.3035 21.6307C46.3497 21.6307 46.3876 21.6283 46.4172 21.6236C46.4468 21.6177 46.4704 21.6129 46.4882 21.6094L46.5734 21.9858C46.545 21.9964 46.5054 22.0071 46.4545 22.0178C46.4036 22.0296 46.339 22.0355 46.2609 22.0355C46.1425 22.0355 46.0265 22.0101 45.9129 21.9592C45.8005 21.9083 45.7069 21.8307 45.6324 21.7266C45.559 21.6224 45.5223 21.491 45.5223 21.3324V18.6193ZM48.3401 19.2727V19.6278H46.9268V19.2727H48.3401ZM47.3387 18.6193H47.7577V21.2188C47.7577 21.3371 47.7749 21.4259 47.8092 21.4851C47.8447 21.5431 47.8897 21.5821 47.9442 21.6023C47.9998 21.6212 48.0584 21.6307 48.1199 21.6307C48.1661 21.6307 48.204 21.6283 48.2336 21.6236C48.2632 21.6177 48.2868 21.6129 48.3046 21.6094L48.3898 21.9858C48.3614 21.9964 48.3218 22.0071 48.2709 22.0178C48.22 22.0296 48.1555 22.0355 48.0773 22.0355C47.959 22.0355 47.843 22.0101 47.7293 21.9592C47.6169 21.9083 47.5233 21.8307 47.4488 21.7266C47.3754 21.6224 47.3387 21.491 47.3387 21.3324V18.6193ZM48.9704 23.0227V19.2727H49.3753V19.706H49.425C49.4558 19.6586 49.4984 19.5982 49.5528 19.5249C49.6085 19.4503 49.6878 19.384 49.7907 19.326C49.8949 19.2668 50.0358 19.2372 50.2133 19.2372C50.443 19.2372 50.6454 19.2946 50.8206 19.4094C50.9958 19.5243 51.1325 19.687 51.2307 19.8977C51.329 20.1084 51.3781 20.357 51.3781 20.6435C51.3781 20.9323 51.329 21.1826 51.2307 21.3945C51.1325 21.6052 50.9964 21.7686 50.8224 21.8846C50.6483 21.9994 50.4477 22.0568 50.2204 22.0568C50.0452 22.0568 49.905 22.0278 49.7996 21.9698C49.6943 21.9106 49.6132 21.8437 49.5564 21.7692C49.4996 21.6934 49.4558 21.6307 49.425 21.581H49.3895V23.0227H48.9704ZM49.3824 20.6364C49.3824 20.8423 49.4126 21.024 49.4729 21.1815C49.5333 21.3377 49.6215 21.4602 49.7375 21.549C49.8535 21.6366 49.9955 21.6804 50.1636 21.6804C50.3388 21.6804 50.485 21.6342 50.6022 21.5419C50.7206 21.4484 50.8093 21.3229 50.8685 21.1655C50.9289 21.0069 50.9591 20.8305 50.9591 20.6364C50.9591 20.4446 50.9295 20.2718 50.8703 20.1179C50.8123 19.9628 50.7241 19.8403 50.6057 19.7504C50.4885 19.6592 50.3412 19.6136 50.1636 19.6136C49.9932 19.6136 49.8499 19.6568 49.7339 19.7433C49.6179 19.8285 49.5303 19.948 49.4711 20.1019C49.412 20.2546 49.3824 20.4328 49.3824 20.6364ZM53.9491 19.8835L53.5727 19.9901C53.549 19.9273 53.5141 19.8664 53.468 19.8072C53.423 19.7468 53.3614 19.6971 53.2833 19.658C53.2052 19.619 53.1051 19.5994 52.9832 19.5994C52.8163 19.5994 52.6772 19.6379 52.566 19.7148C52.4559 19.7906 52.4008 19.8871 52.4008 20.0043C52.4008 20.1084 52.4387 20.1907 52.5145 20.2511C52.5902 20.3114 52.7086 20.3617 52.8696 20.402L53.2744 20.5014C53.5183 20.5606 53.7 20.6512 53.8195 20.7731C53.9391 20.8938 53.9988 21.0495 53.9988 21.2401C53.9988 21.3963 53.9539 21.536 53.8639 21.6591C53.7751 21.7822 53.6508 21.8793 53.491 21.9503C53.3312 22.0213 53.1454 22.0568 52.9335 22.0568C52.6553 22.0568 52.4251 21.9964 52.2428 21.8757C52.0605 21.755 51.9451 21.5786 51.8966 21.3466L52.2943 21.2472C52.3322 21.3939 52.4038 21.504 52.5091 21.5774C52.6157 21.6508 52.7548 21.6875 52.9264 21.6875C53.1217 21.6875 53.2768 21.6461 53.3916 21.5632C53.5076 21.4792 53.5656 21.3786 53.5656 21.2614C53.5656 21.1667 53.5325 21.0874 53.4662 21.0234C53.3999 20.9583 53.2981 20.9098 53.1608 20.8778L52.7062 20.7713C52.4565 20.7121 52.273 20.6204 52.1558 20.4961C52.0398 20.3706 51.9818 20.2138 51.9818 20.0256C51.9818 19.8717 52.025 19.7356 52.1114 19.6172C52.199 19.4988 52.318 19.4059 52.4683 19.3384C52.6198 19.271 52.7915 19.2372 52.9832 19.2372C53.2531 19.2372 53.465 19.2964 53.6189 19.4148C53.7739 19.5331 53.884 19.6894 53.9491 19.8835ZM54.935 22.0284C54.8474 22.0284 54.7723 21.997 54.7095 21.9343C54.6468 21.8716 54.6154 21.7964 54.6154 21.7088C54.6154 21.6212 54.6468 21.546 54.7095 21.4833C54.7723 21.4206 54.8474 21.3892 54.935 21.3892C55.0226 21.3892 55.0978 21.4206 55.1605 21.4833C55.2232 21.546 55.2546 21.6212 55.2546 21.7088C55.2546 21.7668 55.2398 21.8201 55.2102 21.8686C55.1818 21.9171 55.1433 21.9562 55.0948 21.9858C55.0475 22.0142 54.9942 22.0284 54.935 22.0284ZM54.935 20.0043C54.8474 20.0043 54.7723 19.9729 54.7095 19.9102C54.6468 19.8474 54.6154 19.7723 54.6154 19.6847C54.6154 19.5971 54.6468 19.5219 54.7095 19.4592C54.7723 19.3964 54.8474 19.3651 54.935 19.3651C55.0226 19.3651 55.0978 19.3964 55.1605 19.4592C55.2232 19.5219 55.2546 19.5971 55.2546 19.6847C55.2546 19.7427 55.2398 19.7959 55.2102 19.8445C55.1818 19.893 55.1433 19.9321 55.0948 19.9616C55.0475 19.9901 54.9942 20.0043 54.935 20.0043ZM57.2921 18.1932L56.1202 22.5469H55.7367L56.9086 18.1932H57.2921ZM59.0743 18.1932L57.9024 22.5469H57.5189L58.6908 18.1932H59.0743ZM59.8835 19.2727L60.5369 20.3878L61.1903 19.2727H61.6733L60.7926 20.6364L61.6733 22H61.1903L60.5369 20.9418L59.8835 22H59.4006L60.267 20.6364L59.4006 19.2727H59.8835ZM62.5837 19.2727L63.2371 20.3878L63.8905 19.2727H64.3735L63.4928 20.6364L64.3735 22H63.8905L63.2371 20.9418L62.5837 22H62.1008L62.9672 20.6364L62.1008 19.2727H62.5837ZM65.2839 19.2727L65.9373 20.3878L66.5907 19.2727H67.0737L66.193 20.6364L67.0737 22H66.5907L65.9373 20.9418L65.2839 22H64.801L65.6674 20.6364L64.801 19.2727H65.2839ZM67.977 22.0284C67.8894 22.0284 67.8142 21.997 67.7515 21.9343C67.6888 21.8716 67.6574 21.7964 67.6574 21.7088C67.6574 21.6212 67.6888 21.546 67.7515 21.4833C67.8142 21.4206 67.8894 21.3892 67.977 21.3892C68.0646 21.3892 68.1398 21.4206 68.2025 21.4833C68.2652 21.546 68.2966 21.6212 68.2966 21.7088C68.2966 21.7668 68.2818 21.8201 68.2522 21.8686C68.2238 21.9171 68.1853 21.9562 68.1368 21.9858C68.0895 22.0142 68.0362 22.0284 67.977 22.0284ZM69.4676 18.3636V22H69.0486V18.3636H69.4676ZM71.0376 22.0639C70.8648 22.0639 70.708 22.0314 70.5671 21.9663C70.4263 21.9 70.3144 21.8047 70.2315 21.6804C70.1487 21.5549 70.1072 21.4034 70.1072 21.2259C70.1072 21.0696 70.138 20.9429 70.1996 20.8459C70.2611 20.7476 70.3434 20.6707 70.4464 20.6151C70.5494 20.5594 70.663 20.518 70.7873 20.4908C70.9128 20.4624 71.0388 20.4399 71.1655 20.4233C71.3312 20.402 71.4656 20.386 71.5685 20.3754C71.6727 20.3635 71.7485 20.344 71.7958 20.3168C71.8443 20.2895 71.8686 20.2422 71.8686 20.1747V20.1605C71.8686 19.9853 71.8207 19.8492 71.7248 19.7521C71.6301 19.6551 71.4863 19.6065 71.2933 19.6065C71.0933 19.6065 70.9364 19.6503 70.8228 19.7379C70.7092 19.8255 70.6293 19.919 70.5831 20.0185L70.1854 19.8764C70.2564 19.7107 70.3511 19.5817 70.4695 19.4893C70.589 19.3958 70.7192 19.3307 70.8601 19.294C71.0021 19.2562 71.1418 19.2372 71.2791 19.2372C71.3667 19.2372 71.4673 19.2479 71.581 19.2692C71.6958 19.2893 71.8065 19.3313 71.913 19.3952C72.0207 19.4592 72.1101 19.5556 72.1811 19.6847C72.2521 19.8137 72.2876 19.9865 72.2876 20.2031V22H71.8686V21.6307H71.8473C71.8189 21.6899 71.7715 21.7532 71.7053 21.8207C71.639 21.8881 71.5508 21.9455 71.4407 21.9929C71.3306 22.0402 71.1963 22.0639 71.0376 22.0639ZM71.1016 21.6875C71.2673 21.6875 71.407 21.6549 71.5206 21.5898C71.6354 21.5247 71.7218 21.4407 71.7798 21.3377C71.839 21.2347 71.8686 21.1264 71.8686 21.0128V20.6293C71.8509 20.6506 71.8118 20.6701 71.7514 20.6879C71.6922 20.7044 71.6236 20.7192 71.5455 20.7322C71.4685 20.7441 71.3933 20.7547 71.32 20.7642C71.2478 20.7725 71.1892 20.7796 71.1442 20.7855C71.0353 20.7997 70.9335 20.8228 70.8388 20.8548C70.7453 20.8855 70.6695 20.9323 70.6115 20.995C70.5547 21.0566 70.5263 21.1406 70.5263 21.2472C70.5263 21.3928 70.5801 21.5028 70.6879 21.5774C70.7968 21.6508 70.9347 21.6875 71.1016 21.6875ZM73.4715 20.3594V22H73.0525V19.2727H73.4573V19.6989H73.4928C73.5567 19.5604 73.6538 19.4491 73.784 19.3651C73.9142 19.2798 74.0823 19.2372 74.2883 19.2372C74.4729 19.2372 74.6345 19.2751 74.773 19.3509C74.9115 19.4254 75.0192 19.5391 75.0961 19.6918C75.1731 19.8433 75.2116 20.035 75.2116 20.267V22H74.7925V20.2955C74.7925 20.0812 74.7369 19.9143 74.6256 19.7947C74.5144 19.674 74.3617 19.6136 74.1675 19.6136C74.0338 19.6136 73.9142 19.6426 73.8089 19.7006C73.7047 19.7586 73.6224 19.8433 73.5621 19.9545C73.5017 20.0658 73.4715 20.2008 73.4715 20.3594ZM77.0781 23.0795C76.8757 23.0795 76.7017 23.0535 76.5561 23.0014C76.4105 22.9505 76.2892 22.883 76.1921 22.799C76.0962 22.7161 76.0199 22.6274 75.9631 22.5327L76.2969 22.2983C76.3348 22.348 76.3827 22.4048 76.4407 22.4688C76.4987 22.5339 76.578 22.5901 76.6786 22.6374C76.7804 22.686 76.9136 22.7102 77.0781 22.7102C77.2983 22.7102 77.48 22.657 77.6232 22.5504C77.7665 22.4439 77.8381 22.277 77.8381 22.0497V21.4957H77.8026C77.7718 21.5455 77.728 21.607 77.6712 21.6804C77.6155 21.7526 77.535 21.8171 77.4297 21.8739C77.3255 21.9296 77.1847 21.9574 77.0071 21.9574C76.7869 21.9574 76.5893 21.9053 76.4141 21.8011C76.2401 21.697 76.1022 21.5455 76.0004 21.3466C75.8997 21.1477 75.8494 20.9062 75.8494 20.6222C75.8494 20.3428 75.8986 20.0996 75.9968 19.8924C76.0951 19.6841 76.2318 19.5231 76.407 19.4094C76.5821 19.2946 76.7846 19.2372 77.0142 19.2372C77.1918 19.2372 77.3326 19.2668 77.4368 19.326C77.5421 19.384 77.6226 19.4503 77.6783 19.5249C77.7351 19.5982 77.7789 19.6586 77.8097 19.706H77.8523V19.2727H78.2571V22.0781C78.2571 22.3125 78.2038 22.5031 78.0973 22.6499C77.992 22.7978 77.8499 22.9061 77.6712 22.9748C77.4936 23.0446 77.2959 23.0795 77.0781 23.0795ZM77.0639 21.581C77.232 21.581 77.3741 21.5425 77.4901 21.4656C77.6061 21.3886 77.6942 21.2779 77.7546 21.1335C77.815 20.9891 77.8452 20.8163 77.8452 20.6151C77.8452 20.4186 77.8156 20.2451 77.7564 20.0948C77.6972 19.9445 77.6096 19.8267 77.4936 19.7415C77.3776 19.6562 77.2344 19.6136 77.0639 19.6136C76.8864 19.6136 76.7384 19.6586 76.62 19.7486C76.5028 19.8385 76.4147 19.9593 76.3555 20.1108C76.2975 20.2623 76.2685 20.4304 76.2685 20.6151C76.2685 20.8045 76.2981 20.9719 76.3572 21.1175C76.4176 21.262 76.5064 21.3756 76.6236 21.4585C76.742 21.5401 76.8887 21.581 77.0639 21.581ZM80.1321 22.0568C79.8764 22.0568 79.6563 21.9964 79.4716 21.8757C79.2869 21.755 79.1449 21.5887 79.0455 21.3768C78.946 21.1649 78.8963 20.9228 78.8963 20.6506C78.8963 20.3736 78.9472 20.1291 79.049 19.9173C79.152 19.7042 79.2952 19.5379 79.4787 19.4183C79.6634 19.2976 79.8788 19.2372 80.125 19.2372C80.3168 19.2372 80.4896 19.2727 80.6435 19.3438C80.7973 19.4148 80.9234 19.5142 81.0217 19.642C81.1199 19.7699 81.1809 19.919 81.2045 20.0895H80.7855C80.7536 19.9652 80.6825 19.8551 80.5724 19.7592C80.4635 19.6622 80.3168 19.6136 80.1321 19.6136C79.9688 19.6136 79.8255 19.6562 79.7024 19.7415C79.5805 19.8255 79.4852 19.9445 79.4165 20.0984C79.3491 20.2511 79.3153 20.4304 79.3153 20.6364C79.3153 20.8471 79.3485 21.0305 79.4148 21.1868C79.4822 21.343 79.5769 21.4644 79.6989 21.5508C79.822 21.6372 79.9664 21.6804 80.1321 21.6804C80.241 21.6804 80.3398 21.6615 80.4286 21.6236C80.5174 21.5857 80.5926 21.5312 80.6541 21.4602C80.7157 21.3892 80.7595 21.304 80.7855 21.2045H81.2045C81.1809 21.3655 81.1223 21.5105 81.0288 21.6396C80.9364 21.7674 80.8139 21.8692 80.6612 21.945C80.5097 22.0195 80.3333 22.0568 80.1321 22.0568ZM82.2362 20.3594V22H81.8171V18.3636H82.2362V19.6989H82.2717C82.3356 19.558 82.4315 19.4461 82.5593 19.3633C82.6883 19.2792 82.86 19.2372 83.0742 19.2372C83.2601 19.2372 83.4228 19.2745 83.5625 19.3491C83.7022 19.4225 83.8105 19.5355 83.8874 19.6882C83.9656 19.8397 84.0046 20.0327 84.0046 20.267V22H83.5856V20.2955C83.5856 20.0788 83.5294 19.9113 83.4169 19.793C83.3056 19.6734 83.1512 19.6136 82.9535 19.6136C82.8162 19.6136 82.6931 19.6426 82.5842 19.7006C82.4764 19.7586 82.3912 19.8433 82.3285 19.9545C82.2669 20.0658 82.2362 20.2008 82.2362 20.3594ZM85.5738 22.0639C85.401 22.0639 85.2441 22.0314 85.1032 21.9663C84.9624 21.9 84.8505 21.8047 84.7677 21.6804C84.6848 21.5549 84.6434 21.4034 84.6434 21.2259C84.6434 21.0696 84.6742 20.9429 84.7357 20.8459C84.7973 20.7476 84.8795 20.6707 84.9825 20.6151C85.0855 20.5594 85.1991 20.518 85.3234 20.4908C85.4489 20.4624 85.575 20.4399 85.7016 20.4233C85.8673 20.402 86.0017 20.386 86.1047 20.3754C86.2088 20.3635 86.2846 20.344 86.3319 20.3168C86.3805 20.2895 86.4047 20.2422 86.4047 20.1747V20.1605C86.4047 19.9853 86.3568 19.8492 86.2609 19.7521C86.1662 19.6551 86.0224 19.6065 85.8295 19.6065C85.6294 19.6065 85.4726 19.6503 85.3589 19.7379C85.2453 19.8255 85.1654 19.919 85.1192 20.0185L84.7215 19.8764C84.7925 19.7107 84.8872 19.5817 85.0056 19.4893C85.1251 19.3958 85.2554 19.3307 85.3962 19.294C85.5383 19.2562 85.6779 19.2372 85.8153 19.2372C85.9028 19.2372 86.0035 19.2479 86.1171 19.2692C86.2319 19.2893 86.3426 19.3313 86.4491 19.3952C86.5568 19.4592 86.6462 19.5556 86.7172 19.6847C86.7883 19.8137 86.8238 19.9865 86.8238 20.2031V22H86.4047V21.6307H86.3834C86.355 21.6899 86.3077 21.7532 86.2414 21.8207C86.1751 21.8881 86.0869 21.9455 85.9768 21.9929C85.8667 22.0402 85.7324 22.0639 85.5738 22.0639ZM85.6377 21.6875C85.8034 21.6875 85.9431 21.6549 86.0567 21.5898C86.1715 21.5247 86.258 21.4407 86.316 21.3377C86.3751 21.2347 86.4047 21.1264 86.4047 21.0128V20.6293C86.387 20.6506 86.3479 20.6701 86.2876 20.6879C86.2284 20.7044 86.1597 20.7192 86.0816 20.7322C86.0046 20.7441 85.9295 20.7547 85.8561 20.7642C85.7839 20.7725 85.7253 20.7796 85.6803 20.7855C85.5714 20.7997 85.4696 20.8228 85.3749 20.8548C85.2814 20.8855 85.2056 20.9323 85.1476 20.995C85.0908 21.0566 85.0624 21.1406 85.0624 21.2472C85.0624 21.3928 85.1163 21.5028 85.224 21.5774C85.3329 21.6508 85.4708 21.6875 85.6377 21.6875ZM88.7747 19.2727V19.6278H87.3613V19.2727H88.7747ZM87.7733 18.6193H88.1923V21.2188C88.1923 21.3371 88.2095 21.4259 88.2438 21.4851C88.2793 21.5431 88.3243 21.5821 88.3787 21.6023C88.4344 21.6212 88.493 21.6307 88.5545 21.6307C88.6007 21.6307 88.6386 21.6283 88.6681 21.6236C88.6977 21.6177 88.7214 21.6129 88.7392 21.6094L88.8244 21.9858C88.796 21.9964 88.7563 22.0071 88.7054 22.0178C88.6545 22.0296 88.59 22.0355 88.5119 22.0355C88.3935 22.0355 88.2775 22.0101 88.1639 21.9592C88.0514 21.9083 87.9579 21.8307 87.8833 21.7266C87.81 21.6224 87.7733 21.491 87.7733 21.3324V18.6193ZM89.7104 22.0284C89.6228 22.0284 89.5476 21.997 89.4849 21.9343C89.4222 21.8716 89.3908 21.7964 89.3908 21.7088C89.3908 21.6212 89.4222 21.546 89.4849 21.4833C89.5476 21.4206 89.6228 21.3892 89.7104 21.3892C89.798 21.3892 89.8732 21.4206 89.9359 21.4833C89.9986 21.546 90.03 21.6212 90.03 21.7088C90.03 21.7668 90.0152 21.8201 89.9856 21.8686C89.9572 21.9171 89.9187 21.9562 89.8702 21.9858C89.8229 22.0142 89.7696 22.0284 89.7104 22.0284ZM91.8899 22.0568C91.6342 22.0568 91.4141 21.9964 91.2294 21.8757C91.0447 21.755 90.9027 21.5887 90.8033 21.3768C90.7038 21.1649 90.6541 20.9228 90.6541 20.6506C90.6541 20.3736 90.705 20.1291 90.8068 19.9173C90.9098 19.7042 91.053 19.5379 91.2365 19.4183C91.4212 19.2976 91.6366 19.2372 91.8828 19.2372C92.0746 19.2372 92.2474 19.2727 92.4013 19.3438C92.5552 19.4148 92.6812 19.5142 92.7795 19.642C92.8777 19.7699 92.9387 19.919 92.9624 20.0895H92.5433C92.5114 19.9652 92.4403 19.8551 92.3303 19.7592C92.2214 19.6622 92.0746 19.6136 91.8899 19.6136C91.7266 19.6136 91.5833 19.6562 91.4602 19.7415C91.3383 19.8255 91.243 19.9445 91.1744 20.0984C91.1069 20.2511 91.0732 20.4304 91.0732 20.6364C91.0732 20.8471 91.1063 21.0305 91.1726 21.1868C91.2401 21.343 91.3348 21.4644 91.4567 21.5508C91.5798 21.6372 91.7242 21.6804 91.8899 21.6804C91.9988 21.6804 92.0977 21.6615 92.1864 21.6236C92.2752 21.5857 92.3504 21.5312 92.4119 21.4602C92.4735 21.3892 92.5173 21.304 92.5433 21.2045H92.9624C92.9387 21.3655 92.8801 21.5105 92.7866 21.6396C92.6942 21.7674 92.5717 21.8692 92.419 21.945C92.2675 22.0195 92.0911 22.0568 91.8899 22.0568ZM93.994 20.3594V22H93.5749V19.2727H93.9798V19.6989H94.0153C94.0792 19.5604 94.1763 19.4491 94.3065 19.3651C94.4367 19.2798 94.6048 19.2372 94.8107 19.2372C94.9954 19.2372 95.157 19.2751 95.2955 19.3509C95.4339 19.4254 95.5417 19.5391 95.6186 19.6918C95.6955 19.8433 95.734 20.035 95.734 20.267V22H95.315V20.2955C95.315 20.0812 95.2594 19.9143 95.1481 19.7947C95.0368 19.674 94.8841 19.6136 94.69 19.6136C94.5562 19.6136 94.4367 19.6426 94.3313 19.7006C94.2272 19.7586 94.1449 19.8433 94.0845 19.9545C94.0241 20.0658 93.994 20.2008 93.994 20.3594ZM97.7852 18.1932L96.6134 22.5469H96.2298L97.4017 18.1932H97.7852ZM100.214 19.8835L99.8374 19.9901C99.8137 19.9273 99.7788 19.8664 99.7326 19.8072C99.6876 19.7468 99.6261 19.6971 99.5479 19.658C99.4698 19.619 99.3698 19.5994 99.2479 19.5994C99.081 19.5994 98.9419 19.6379 98.8306 19.7148C98.7205 19.7906 98.6655 19.8871 98.6655 20.0043C98.6655 20.1084 98.7034 20.1907 98.7791 20.2511C98.8549 20.3114 98.9732 20.3617 99.1342 20.402L99.5391 20.5014C99.7829 20.5606 99.9646 20.6512 100.084 20.7731C100.204 20.8938 100.263 21.0495 100.263 21.2401C100.263 21.3963 100.219 21.536 100.129 21.6591C100.04 21.7822 99.9155 21.8793 99.7557 21.9503C99.5959 22.0213 99.41 22.0568 99.1982 22.0568C98.92 22.0568 98.6897 21.9964 98.5075 21.8757C98.3252 21.755 98.2098 21.5786 98.1612 21.3466L98.5589 21.2472C98.5968 21.3939 98.6684 21.504 98.7738 21.5774C98.8803 21.6508 99.0194 21.6875 99.1911 21.6875C99.3864 21.6875 99.5414 21.6461 99.6562 21.5632C99.7723 21.4792 99.8303 21.3786 99.8303 21.2614C99.8303 21.1667 99.7971 21.0874 99.7308 21.0234C99.6645 20.9583 99.5627 20.9098 99.4254 20.8778L98.9709 20.7713C98.7211 20.7121 98.5376 20.6204 98.4205 20.4961C98.3045 20.3706 98.2464 20.2138 98.2464 20.0256C98.2464 19.8717 98.2897 19.7356 98.3761 19.6172C98.4637 19.4988 98.5826 19.4059 98.733 19.3384C98.8845 19.271 99.0561 19.2372 99.2479 19.2372C99.5178 19.2372 99.7296 19.2964 99.8835 19.4148C100.039 19.5331 100.149 19.6894 100.214 19.8835ZM101.313 20.3594V22H100.894V18.3636H101.313V19.6989H101.349C101.413 19.558 101.509 19.4461 101.636 19.3633C101.765 19.2792 101.937 19.2372 102.151 19.2372C102.337 19.2372 102.5 19.2745 102.64 19.3491C102.779 19.4225 102.888 19.5355 102.965 19.6882C103.043 19.8397 103.082 20.0327 103.082 20.267V22H102.663V20.2955C102.663 20.0788 102.607 19.9113 102.494 19.793C102.383 19.6734 102.228 19.6136 102.031 19.6136C101.893 19.6136 101.77 19.6426 101.661 19.7006C101.554 19.7586 101.468 19.8433 101.406 19.9545C101.344 20.0658 101.313 20.2008 101.313 20.3594ZM104.651 22.0639C104.478 22.0639 104.321 22.0314 104.18 21.9663C104.04 21.9 103.928 21.8047 103.845 21.6804C103.762 21.5549 103.721 21.4034 103.721 21.2259C103.721 21.0696 103.751 20.9429 103.813 20.8459C103.874 20.7476 103.957 20.6707 104.06 20.6151C104.163 20.5594 104.276 20.518 104.401 20.4908C104.526 20.4624 104.652 20.4399 104.779 20.4233C104.944 20.402 105.079 20.386 105.182 20.3754C105.286 20.3635 105.362 20.344 105.409 20.3168C105.458 20.2895 105.482 20.2422 105.482 20.1747V20.1605C105.482 19.9853 105.434 19.8492 105.338 19.7521C105.243 19.6551 105.1 19.6065 104.907 19.6065C104.707 19.6065 104.55 19.6503 104.436 19.7379C104.322 19.8255 104.243 19.919 104.196 20.0185L103.799 19.8764C103.87 19.7107 103.964 19.5817 104.083 19.4893C104.202 19.3958 104.333 19.3307 104.473 19.294C104.615 19.2562 104.755 19.2372 104.892 19.2372C104.98 19.2372 105.081 19.2479 105.194 19.2692C105.309 19.2893 105.42 19.3313 105.526 19.3952C105.634 19.4592 105.723 19.5556 105.794 19.6847C105.865 19.8137 105.901 19.9865 105.901 20.2031V22H105.482V21.6307H105.461C105.432 21.6899 105.385 21.7532 105.319 21.8207C105.252 21.8881 105.164 21.9455 105.054 21.9929C104.944 22.0402 104.81 22.0639 104.651 22.0639ZM104.715 21.6875C104.881 21.6875 105.02 21.6549 105.134 21.5898C105.249 21.5247 105.335 21.4407 105.393 21.3377C105.452 21.2347 105.482 21.1264 105.482 21.0128V20.6293C105.464 20.6506 105.425 20.6701 105.365 20.6879C105.306 20.7044 105.237 20.7192 105.159 20.7322C105.082 20.7441 105.007 20.7547 104.933 20.7642C104.861 20.7725 104.802 20.7796 104.757 20.7855C104.649 20.7997 104.547 20.8228 104.452 20.8548C104.359 20.8855 104.283 20.9323 104.225 20.995C104.168 21.0566 104.14 21.1406 104.14 21.2472C104.14 21.3928 104.193 21.5028 104.301 21.5774C104.41 21.6508 104.548 21.6875 104.715 21.6875ZM106.666 22V19.2727H107.071V19.6847H107.099C107.149 19.5497 107.239 19.4402 107.369 19.3562C107.499 19.2721 107.646 19.2301 107.809 19.2301C107.84 19.2301 107.878 19.2307 107.925 19.2319C107.971 19.2331 108.006 19.2348 108.029 19.2372V19.6634C108.015 19.6598 107.983 19.6545 107.932 19.6474C107.882 19.6391 107.829 19.6349 107.774 19.6349C107.641 19.6349 107.523 19.6628 107.419 19.7184C107.316 19.7728 107.234 19.8486 107.174 19.9457C107.114 20.0415 107.085 20.151 107.085 20.2741V22H106.666ZM109.587 22.0568C109.324 22.0568 109.097 21.9988 108.907 21.8828C108.717 21.7656 108.571 21.6023 108.468 21.3928C108.366 21.1821 108.315 20.937 108.315 20.6577C108.315 20.3783 108.366 20.1321 108.468 19.919C108.571 19.7048 108.714 19.5379 108.898 19.4183C109.082 19.2976 109.298 19.2372 109.544 19.2372C109.686 19.2372 109.826 19.2609 109.965 19.3082C110.103 19.3556 110.229 19.4325 110.343 19.5391C110.457 19.6444 110.547 19.7841 110.615 19.9581C110.682 20.1321 110.716 20.3464 110.716 20.6009V20.7784H108.614V20.4162H110.29C110.29 20.2623 110.259 20.125 110.197 20.0043C110.137 19.8835 110.051 19.7882 109.938 19.7184C109.827 19.6486 109.695 19.6136 109.544 19.6136C109.377 19.6136 109.233 19.6551 109.111 19.7379C108.99 19.8196 108.897 19.9261 108.832 20.0575C108.767 20.1889 108.734 20.3298 108.734 20.4801V20.7216C108.734 20.9276 108.77 21.1022 108.841 21.2454C108.913 21.3874 109.013 21.4957 109.141 21.5703C109.269 21.6437 109.417 21.6804 109.587 21.6804C109.697 21.6804 109.796 21.665 109.885 21.6342C109.975 21.6023 110.052 21.5549 110.117 21.4922C110.183 21.4283 110.233 21.349 110.268 21.2543L110.673 21.3679C110.631 21.5052 110.559 21.6259 110.458 21.7301C110.358 21.8331 110.233 21.9136 110.085 21.9716C109.938 22.0284 109.771 22.0568 109.587 22.0568ZM112.639 18.1932L111.467 22.5469H111.083L112.255 18.1932H112.639ZM113.555 18.3636V22H113.135V18.3636H113.555ZM115.125 22.0639C114.952 22.0639 114.795 22.0314 114.654 21.9663C114.513 21.9 114.401 21.8047 114.318 21.6804C114.236 21.5549 114.194 21.4034 114.194 21.2259C114.194 21.0696 114.225 20.9429 114.286 20.8459C114.348 20.7476 114.43 20.6707 114.533 20.6151C114.636 20.5594 114.75 20.518 114.874 20.4908C115 20.4624 115.126 20.4399 115.252 20.4233C115.418 20.402 115.552 20.386 115.655 20.3754C115.76 20.3635 115.835 20.344 115.883 20.3168C115.931 20.2895 115.956 20.2422 115.956 20.1747V20.1605C115.956 19.9853 115.908 19.8492 115.812 19.7521C115.717 19.6551 115.573 19.6065 115.38 19.6065C115.18 19.6065 115.023 19.6503 114.91 19.7379C114.796 19.8255 114.716 19.919 114.67 20.0185L114.272 19.8764C114.343 19.7107 114.438 19.5817 114.556 19.4893C114.676 19.3958 114.806 19.3307 114.947 19.294C115.089 19.2562 115.229 19.2372 115.366 19.2372C115.454 19.2372 115.554 19.2479 115.668 19.2692C115.783 19.2893 115.893 19.3313 116 19.3952C116.108 19.4592 116.197 19.5556 116.268 19.6847C116.339 19.8137 116.375 19.9865 116.375 20.2031V22H115.956V21.6307H115.934C115.906 21.6899 115.858 21.7532 115.792 21.8207C115.726 21.8881 115.638 21.9455 115.528 21.9929C115.418 22.0402 115.283 22.0639 115.125 22.0639ZM115.188 21.6875C115.354 21.6875 115.494 21.6549 115.608 21.5898C115.722 21.5247 115.809 21.4407 115.867 21.3377C115.926 21.2347 115.956 21.1264 115.956 21.0128V20.6293C115.938 20.6506 115.899 20.6701 115.838 20.6879C115.779 20.7044 115.71 20.7192 115.632 20.7322C115.555 20.7441 115.48 20.7547 115.407 20.7642C115.335 20.7725 115.276 20.7796 115.231 20.7855C115.122 20.7997 115.02 20.8228 114.926 20.8548C114.832 20.8855 114.756 20.9323 114.698 20.995C114.642 21.0566 114.613 21.1406 114.613 21.2472C114.613 21.3928 114.667 21.5028 114.775 21.5774C114.884 21.6508 115.022 21.6875 115.188 21.6875ZM117.558 20.3594V22H117.139V19.2727H117.544V19.6989H117.58C117.644 19.5604 117.741 19.4491 117.871 19.3651C118.001 19.2798 118.169 19.2372 118.375 19.2372C118.56 19.2372 118.721 19.2751 118.86 19.3509C118.998 19.4254 119.106 19.5391 119.183 19.6918C119.26 19.8433 119.298 20.035 119.298 20.267V22H118.879V20.2955C118.879 20.0812 118.824 19.9143 118.713 19.7947C118.601 19.674 118.449 19.6136 118.254 19.6136C118.121 19.6136 118.001 19.6426 117.896 19.7006C117.792 19.7586 117.709 19.8433 117.649 19.9545C117.589 20.0658 117.558 20.2008 117.558 20.3594ZM121.165 23.0795C120.963 23.0795 120.789 23.0535 120.643 23.0014C120.497 22.9505 120.376 22.883 120.279 22.799C120.183 22.7161 120.107 22.6274 120.05 22.5327L120.384 22.2983C120.422 22.348 120.47 22.4048 120.528 22.4688C120.586 22.5339 120.665 22.5901 120.766 22.6374C120.867 22.686 121.001 22.7102 121.165 22.7102C121.385 22.7102 121.567 22.657 121.71 22.5504C121.853 22.4439 121.925 22.277 121.925 22.0497V21.4957H121.889C121.859 21.5455 121.815 21.607 121.758 21.6804C121.702 21.7526 121.622 21.8171 121.517 21.8739C121.412 21.9296 121.272 21.9574 121.094 21.9574C120.874 21.9574 120.676 21.9053 120.501 21.8011C120.327 21.697 120.189 21.5455 120.087 21.3466C119.987 21.1477 119.936 20.9062 119.936 20.6222C119.936 20.3428 119.985 20.0996 120.084 19.8924C120.182 19.6841 120.319 19.5231 120.494 19.4094C120.669 19.2946 120.871 19.2372 121.101 19.2372C121.279 19.2372 121.42 19.2668 121.524 19.326C121.629 19.384 121.71 19.4503 121.765 19.5249C121.822 19.5982 121.866 19.6586 121.897 19.706H121.939V19.2727H122.344V22.0781C122.344 22.3125 122.291 22.5031 122.184 22.6499C122.079 22.7978 121.937 22.9061 121.758 22.9748C121.581 23.0446 121.383 23.0795 121.165 23.0795ZM121.151 21.581C121.319 21.581 121.461 21.5425 121.577 21.4656C121.693 21.3886 121.781 21.2779 121.842 21.1335C121.902 20.9891 121.932 20.8163 121.932 20.6151C121.932 20.4186 121.902 20.2451 121.843 20.0948C121.784 19.9445 121.697 19.8267 121.581 19.7415C121.465 19.6562 121.321 19.6136 121.151 19.6136C120.973 19.6136 120.825 19.6586 120.707 19.7486C120.59 19.8385 120.502 19.9593 120.442 20.1108C120.384 20.2623 120.355 20.4304 120.355 20.6151C120.355 20.8045 120.385 20.9719 120.444 21.1175C120.505 21.262 120.593 21.3756 120.71 21.4585C120.829 21.5401 120.976 21.581 121.151 21.581ZM124.219 22.0568C123.963 22.0568 123.743 21.9964 123.559 21.8757C123.374 21.755 123.232 21.5887 123.132 21.3768C123.033 21.1649 122.983 20.9228 122.983 20.6506C122.983 20.3736 123.034 20.1291 123.136 19.9173C123.239 19.7042 123.382 19.5379 123.566 19.4183C123.75 19.2976 123.966 19.2372 124.212 19.2372C124.404 19.2372 124.576 19.2727 124.73 19.3438C124.884 19.4148 125.01 19.5142 125.109 19.642C125.207 19.7699 125.268 19.919 125.291 20.0895H124.872C124.84 19.9652 124.769 19.8551 124.659 19.7592C124.55 19.6622 124.404 19.6136 124.219 19.6136C124.056 19.6136 123.912 19.6562 123.789 19.7415C123.667 19.8255 123.572 19.9445 123.503 20.0984C123.436 20.2511 123.402 20.4304 123.402 20.6364C123.402 20.8471 123.435 21.0305 123.502 21.1868C123.569 21.343 123.664 21.4644 123.786 21.5508C123.909 21.6372 124.053 21.6804 124.219 21.6804C124.328 21.6804 124.427 21.6615 124.516 21.6236C124.604 21.5857 124.679 21.5312 124.741 21.4602C124.803 21.3892 124.846 21.304 124.872 21.2045H125.291C125.268 21.3655 125.209 21.5105 125.116 21.6396C125.023 21.7674 124.901 21.8692 124.748 21.945C124.597 22.0195 124.42 22.0568 124.219 22.0568ZM126.323 20.3594V22H125.904V18.3636H126.323V19.6989H126.359C126.422 19.558 126.518 19.4461 126.646 19.3633C126.775 19.2792 126.947 19.2372 127.161 19.2372C127.347 19.2372 127.51 19.2745 127.649 19.3491C127.789 19.4225 127.897 19.5355 127.974 19.6882C128.052 19.8397 128.092 20.0327 128.092 20.267V22H127.672V20.2955C127.672 20.0788 127.616 19.9113 127.504 19.793C127.393 19.6734 127.238 19.6136 127.04 19.6136C126.903 19.6136 126.78 19.6426 126.671 19.7006C126.563 19.7586 126.478 19.8433 126.415 19.9545C126.354 20.0658 126.323 20.2008 126.323 20.3594ZM129.661 22.0639C129.488 22.0639 129.331 22.0314 129.19 21.9663C129.049 21.9 128.937 21.8047 128.855 21.6804C128.772 21.5549 128.73 21.4034 128.73 21.2259C128.73 21.0696 128.761 20.9429 128.823 20.8459C128.884 20.7476 128.966 20.6707 129.069 20.6151C129.172 20.5594 129.286 20.518 129.41 20.4908C129.536 20.4624 129.662 20.4399 129.789 20.4233C129.954 20.402 130.089 20.386 130.192 20.3754C130.296 20.3635 130.372 20.344 130.419 20.3168C130.467 20.2895 130.492 20.2422 130.492 20.1747V20.1605C130.492 19.9853 130.444 19.8492 130.348 19.7521C130.253 19.6551 130.109 19.6065 129.916 19.6065C129.716 19.6065 129.559 19.6503 129.446 19.7379C129.332 19.8255 129.252 19.919 129.206 20.0185L128.808 19.8764C128.879 19.7107 128.974 19.5817 129.093 19.4893C129.212 19.3958 129.342 19.3307 129.483 19.294C129.625 19.2562 129.765 19.2372 129.902 19.2372C129.99 19.2372 130.09 19.2479 130.204 19.2692C130.319 19.2893 130.43 19.3313 130.536 19.3952C130.644 19.4592 130.733 19.5556 130.804 19.6847C130.875 19.8137 130.911 19.9865 130.911 20.2031V22H130.492V21.6307H130.47C130.442 21.6899 130.395 21.7532 130.328 21.8207C130.262 21.8881 130.174 21.9455 130.064 21.9929C129.954 22.0402 129.819 22.0639 129.661 22.0639ZM129.725 21.6875C129.89 21.6875 130.03 21.6549 130.144 21.5898C130.258 21.5247 130.345 21.4407 130.403 21.3377C130.462 21.2347 130.492 21.1264 130.492 21.0128V20.6293C130.474 20.6506 130.435 20.6701 130.374 20.6879C130.315 20.7044 130.247 20.7192 130.169 20.7322C130.092 20.7441 130.016 20.7547 129.943 20.7642C129.871 20.7725 129.812 20.7796 129.767 20.7855C129.658 20.7997 129.557 20.8228 129.462 20.8548C129.368 20.8855 129.293 20.9323 129.235 20.995C129.178 21.0566 129.149 21.1406 129.149 21.2472C129.149 21.3928 129.203 21.5028 129.311 21.5774C129.42 21.6508 129.558 21.6875 129.725 21.6875ZM132.862 19.2727V19.6278H131.448V19.2727H132.862ZM131.86 18.6193H132.279V21.2188C132.279 21.3371 132.296 21.4259 132.331 21.4851C132.366 21.5431 132.411 21.5821 132.466 21.6023C132.521 21.6212 132.58 21.6307 132.641 21.6307C132.688 21.6307 132.725 21.6283 132.755 21.6236C132.785 21.6177 132.808 21.6129 132.826 21.6094L132.911 21.9858C132.883 21.9964 132.843 22.0071 132.792 22.0178C132.741 22.0296 132.677 22.0355 132.599 22.0355C132.48 22.0355 132.364 22.0101 132.251 21.9592C132.138 21.9083 132.045 21.8307 131.97 21.7266C131.897 21.6224 131.86 21.491 131.86 21.3324V18.6193ZM134.957 20.2457V20.6364H133.366V20.2457H134.957ZM135.894 19.2727L136.548 20.3878L137.201 19.2727H137.684L136.803 20.6364L137.684 22H137.201L136.548 20.9418L135.894 22H135.411L136.278 20.6364L135.411 19.2727H135.894Z" fill="black"/>
</g>
<defs>
<clipPath id="clip0_1_65">
<rect width="188" height="128" fill="white"/>
</clipPath>
</defs>
</svg>
